<?xml version="1.0" encoding="UTF-8" standalone="no"?>
<svg xmlns:rdf="http://www.w3.org/1999/02/22-rdf-syntax-ns#" xmlns="http://www.w3.org/2000/svg" version="1.0" xmlns:cc="http://creativecommons.org/ns#" xmlns:xlink="http://www.w3.org/1999/xlink" viewBox="0 0 128 128" xmlns:dc="http://purl.org/dc/elements/1.1/">
	<defs>
		<linearGradient id="g">
			<stop stop-color="#3465a4" offset="0"/>
			<stop stop-color="#3465a4" stop-opacity="0" offset="1"/>
		</linearGradient>
		<linearGradient id="b">
			<stop stop-color="#fff" offset="0"/>
			<stop stop-color="#fff" stop-opacity="0" offset="1"/>
		</linearGradient>
		<linearGradient id="c">
			<stop stop-color="#73a0d0" offset="0"/>
			<stop stop-color="#fff" offset="1"/>
		</linearGradient>
		<linearGradient id="d">
			<stop stop-opacity=".70588" offset="0"/>
			<stop stop-opacity=".35294" offset="0.4"/>
			<stop stop-opacity="0" offset="1"/>
		</linearGradient>
		<linearGradient id="ag">
			<stop stop-color="#fff" offset="0"/>
			<stop stop-color="#fff" stop-opacity=".84536" offset="0.35"/>
			<stop stop-color="#fff" stop-opacity="0" offset="1"/>
		</linearGradient>
		<radialGradient id="x" fy="31.006" xlink:href="#d" gradientUnits="userSpaceOnUse" cy="63.501" cx="65.33" r="57.351"/>
		<linearGradient id="af" y2="222.16" gradientUnits="userSpaceOnUse" x2="428.63" y1="222.16" x1="60.812">
			<stop stop-color="#4434e2" offset="0"/>
			<stop stop-color="#15069a" offset="1"/>
		</linearGradient>
		<radialGradient id="w" gradientUnits="userSpaceOnUse" cy="222.16" cx="244.72" r="183.91">
			<stop stop-color="#fff" stop-opacity=".70103" offset="0"/>
			<stop stop-color="#13059a" stop-opacity="0" offset="0.8"/>
			<stop stop-color="#4434e2" offset="1"/>
		</radialGradient>
		<radialGradient id="v" xlink:href="#b" gradientUnits="userSpaceOnUse" cy="222.16" cx="49.71" gradientTransform="matrix(1.3539 0 0 1.3539 -33.889 -78.631)" r="183.91"/>
		<radialGradient id="u" xlink:href="#b" gradientUnits="userSpaceOnUse" cy="222.16" cx="69.945" gradientTransform="matrix(1.3539 0 0 1.3539 -33.889 -78.631)" r="183.91"/>
		<linearGradient id="ae" y2="240.92" xlink:href="#b" gradientUnits="userSpaceOnUse" x2="420" gradientTransform="matrix(.54348 -.94133 .94133 .54348 -156.67 314.83)" y1="240.92" x1="98"/>
		<linearGradient id="ad" y2="240.92" xlink:href="#b" gradientUnits="userSpaceOnUse" x2="420" gradientTransform="matrix(-.94133 .54348 .54348 .94133 334.23 -173.07)" y1="240.92" x1="98"/>
		<linearGradient id="ac" y2="240.92" xlink:href="#b" gradientUnits="userSpaceOnUse" x2="420" gradientTransform="matrix(.94133 -.54348 -.54348 -.94133 150.77 625.27)" y1="240.92" x1="98"/>
		<linearGradient id="ab" y2="240.92" xlink:href="#b" gradientUnits="userSpaceOnUse" x2="420" gradientTransform="matrix(-.54348 .94133 -.94133 -.54348 641.67 131.38)" y1="240.92" x1="98"/>
		<radialGradient id="t" xlink:href="#b" gradientUnits="userSpaceOnUse" cy="226.88" cx="246.35" gradientTransform="matrix(1 -.57734 .12401 .21480 -28.136 320.38)" r="154.36"/>
		<radialGradient id="s" xlink:href="#b" gradientUnits="userSpaceOnUse" cy="226.88" cx="246.35" gradientTransform="matrix(-.57734 -1 .21480 -.12401 339.85 501.37)" r="154.36"/>
		<radialGradient id="a" xlink:href="#ag" gradientUnits="userSpaceOnUse" cy="148.5" cx="156.5" r="19.5"/>
		<radialGradient id="r" xlink:href="#d" gradientUnits="userSpaceOnUse" cy="98.51" cx="104.98" gradientTransform="matrix(1.189 0 0 .76632 -21.88 20.22)" r="94.905"/>
		<radialGradient id="q" xlink:href="#c" gradientUnits="userSpaceOnUse" cy="89.625" cx="262.1" gradientTransform="matrix(.45924 0 0 .20672 10.53 45.746)" r="142.27"/>
		<linearGradient id="aa" y2="36.701" xlink:href="#g" gradientUnits="userSpaceOnUse" x2="183.82" gradientTransform="matrix(.45924 0 0 .45924 10.53 20.13)" y1="306.92" x1="339.83"/>
		<radialGradient id="p" xlink:href="#c" gradientUnits="userSpaceOnUse" cy="141.67" cx="167.69" gradientTransform="matrix(.64753 -2.0778e-7 .11742 0.709 37.758 -78.526)" r="21.773"/>
		<radialGradient id="o" xlink:href="#c" gradientUnits="userSpaceOnUse" cy="141.67" cx="167.69" gradientTransform="matrix(-.56078 -.32376 -.45619 .55530 385.36 14.612)" r="21.773"/>
		<linearGradient id="f" y2="162.24" xlink:href="#b" gradientUnits="userSpaceOnUse" x2="185.18" y1="178.87" x1="185.18"/>
		<radialGradient id="e" xlink:href="#b" gradientUnits="userSpaceOnUse" cy="162.24" cx="185.18" gradientTransform="matrix(1.7659 0 0 3.0048 -141.84 -325.26)" r="8.3117"/>
		<radialGradient id="n" xlink:href="#c" gradientUnits="userSpaceOnUse" cy="186.6" cx="221.8" gradientTransform="matrix(-.11223 .41884 -.51340 -.13757 305.54 -5.2795)" r="66.984"/>
		<radialGradient id="m" gradientUnits="userSpaceOnUse" cy="231.32" cx="221.52" gradientTransform="matrix(.56017 .15010 -.098545 .36778 78.273 -37.299)" r="13.714">
			<stop stop-color="#fff" offset="0"/>
			<stop stop-color="#fff" stop-opacity="0" offset="1"/>
		</radialGradient>
		<radialGradient id="l" xlink:href="#c" gradientUnits="userSpaceOnUse" cy="137.96" cx="231.54" gradientTransform="matrix(.35088 .46174 -.84259 .6403 234.94 -166.62)" r="22.608"/>
		<radialGradient id="k" xlink:href="#c" gradientUnits="userSpaceOnUse" cy="126.36" cx="211.68" gradientTransform="matrix(.84088 -.021633 .026742 1.0395 8.0244 -106.11)" r="14.333"/>
		<radialGradient id="j" xlink:href="#d" gradientUnits="userSpaceOnUse" cy="188.13" cx="142.7" gradientTransform="matrix(.78739 0 0 .50464 230.34 97.194)" r="76.514"/>
		<linearGradient id="z" y2="336.95" xlink:href="#c" gradientUnits="userSpaceOnUse" x2="452" gradientTransform="matrix(.45924 0 0 .45924 210.53 20.13)" y1="546.04" x1="508.03"/>
		<radialGradient id="i" xlink:href="#g" gradientUnits="userSpaceOnUse" cy="205.85" cx="129.83" gradientTransform="matrix(.22446 .18462 -.30791 .37436 304.44 51.175)" r="169.41"/>
		<radialGradient id="h" gradientUnits="userSpaceOnUse" cy="388.71" cx="235.33" gradientTransform="matrix(.63543 0 0 .55910 162.72 -15.633)" r="126.07">
			<stop stop-color="#fff" offset="0"/>
			<stop stop-color="#fff" stop-opacity="0" offset="1"/>
		</radialGradient>
		<linearGradient id="y" y2="61.856" gradientUnits="userSpaceOnUse" x2="1.9969" gradientTransform="matrix(1.1861 0 0 1.1922 53.917 53.301)" y1="1.9949" x1="1.9969">
			<stop stop-color="#66cc52" offset="0"/>
			<stop stop-color="#60bf4c" offset="1"/>
		</linearGradient>
	</defs>
	<metadata>
		<rdf:RDF>
			<cc:Work rdf:about="">
				<dc:format>image/svg+xml</dc:format>
				<dc:type rdf:resource="http://purl.org/dc/dcmitype/StillImage"/>
				<cc:license rdf:resource="http://www.mozilla.org/MPL/"/>
				<dc:title/>
				<dc:creator>
					<cc:Agent>
						<dc:title>Ricardo Fernández Fuentes</dc:title>
					</cc:Agent>
				</dc:creator>
				<dc:rights>
					<cc:Agent>
						<dc:title>Ricardo Fernández Fuentes</dc:title>
					</cc:Agent>
				</dc:rights>
				<dc:description>iceweasel icon</dc:description>
				<dc:subject>
					<rdf:Bag>
						<rdf:li>iceweasel</rdf:li>
						<rdf:li>ico</rdf:li>
						<rdf:li>icon</rdf:li>
					</rdf:Bag>
				</dc:subject>
				<dc:publisher>
					<cc:Agent>
						<dc:title>inkscape</dc:title>
					</cc:Agent>
				</dc:publisher>
			</cc:Work>
		</rdf:RDF>
	</metadata>
	<g>
		<g transform="matrix(.80164 0 0 .80164 -10.14 -2.9345e-7)" stroke-width="12.474">
			<path d="m122.68 63.501a57.351 57.351 0 1 1 -114.7 0 57.351 57.351 0 1 1 114.7 0z" transform="matrix(.78208 0 0 .28341 39.843 125.42)" fill="url(#x)"/>
			<g transform="matrix(.62372 0 0 .62372 11.105 1.3774e-7)">
				<path stroke-linejoin="round" d="m428.63 222.16a183.91 183.91 0 1 1 -367.82 0 183.91 183.91 0 1 1 367.82 0z" transform="matrix(0 -.52521 .52521 0 11.422 267.42)" stroke="#4e9a06" stroke-width="7.6159" fill="#4e9a06"/>
				<path d="m428.63 222.16a183.91 183.91 0 1 1 -367.82 0 183.91 183.91 0 1 1 367.82 0z" transform="matrix(0 -.52521 .52521 0 11.422 267.42)" fill="url(#af)"/>
				<path d="m428.63 222.16a183.91 183.91 0 1 1 -367.82 0 183.91 183.91 0 1 1 367.82 0z" transform="matrix(0 -.52521 .52521 0 11.422 267.42)" fill="url(#w)"/>
				<path d="m428.63 222.16a183.91 183.91 0 1 1 -367.82 0 183.91 183.91 0 1 1 367.82 0z" transform="matrix(0 .38240 .38240 0 43.148 21.005)" fill="url(#v)"/>
				<path d="m428.63 222.16a183.91 183.91 0 1 1 -367.82 0 183.91 183.91 0 1 1 367.82 0z" transform="matrix(0 -.30672 .41239 0 36.487 251.36)" fill="url(#u)"/>
				<g opacity=".5" transform="matrix(.52521 0 0 .52521 -.42670 22.209)" fill-rule="evenodd">
					<path d="m201.58 398.67s-175.99-177.97 32.579-358.78c-235.79 180.15-32.03 357.83-32.58 358.78z" fill="url(#ae)"/>
					<path d="m418.06 185.19s-177.97-175.99-358.78 32.58c180.16-235.8 357.84-32.04 358.78-32.58z" fill="url(#ad)"/>
					<path d="m66.938 267.02s177.97 175.99 358.78-32.58c-180.16 235.8-357.84 32.04-358.78 32.58z" fill="url(#ac)"/>
					<path d="m283.42 47.542s175.99 177.97-32.579 358.78c235.79-180.15 32.03-357.84 32.58-358.78z" fill="url(#ab)"/>
					<path d="m92 316s170.42-72.47 308.71-178.23c-161.71 68.23-309.71 178.23-308.71 178.23z" fill="url(#t)"/>
					<path d="m335.47 381.24s-72.468-170.42-178.23-308.71c68.234 161.71 178.23 309.71 178.23 308.71z" fill="url(#s)"/>
				</g>
				<path d="m176 148.5a19.5 19.5 0 1 1 -39 0 19.5 19.5 0 1 1 39 0z" transform="matrix(.98309 0 0 .98309 -24.815 -4.2943)" fill="url(#a)"/>
				<path d="m176 148.5a19.5 19.5 0 1 1 -39 0 19.5 19.5 0 1 1 39 0z" transform="matrix(.41748 0 0 .41748 112.55 29.804)" fill="url(#a)"/>
				<path d="m176 148.5a19.5 19.5 0 1 1 -39 0 19.5 19.5 0 1 1 39 0z" transform="matrix(.25587 0 0 .25587 157.27 63.782)" fill="url(#a)"/>
				<path d="m176 148.5a19.5 19.5 0 1 1 -39 0 19.5 19.5 0 1 1 39 0z" transform="matrix(.52521 0 0 .52521 15.855 9.6037)" fill="url(#a)"/>
				<path d="m176 148.5a19.5 19.5 0 1 1 -39 0 19.5 19.5 0 1 1 39 0z" transform="matrix(.52521 0 0 .52521 100.94 30.612)" fill="url(#a)"/>
				<path d="m176 148.5a19.5 19.5 0 1 1 -39 0 19.5 19.5 0 1 1 39 0z" transform="matrix(.52521 0 0 .52521 76.255 115.7)" fill="url(#a)"/>
				<path d="m176 148.5a19.5 19.5 0 1 1 -39 0 19.5 19.5 0 1 1 39 0z" transform="matrix(.52521 0 0 .52521 -10.931 96.264)" fill="url(#a)"/>
				<path d="m176 148.5a19.5 19.5 0 1 1 -39 0 19.5 19.5 0 1 1 39 0z" transform="matrix(.41748 0 0 .41748 109.92 127.49)" fill="url(#a)"/>
				<path d="m176 148.5a19.5 19.5 0 1 1 -39 0 19.5 19.5 0 1 1 39 0z" transform="matrix(.25587 0 0 .25587 123.13 167.77)" fill="url(#a)"/>
				<path d="m176 148.5a19.5 19.5 0 1 1 -39 0 19.5 19.5 0 1 1 39 0z" transform="matrix(.41748 0 0 .41748 13.283 129.59)" fill="url(#a)"/>
				<path d="m176 148.5a19.5 19.5 0 1 1 -39 0 19.5 19.5 0 1 1 39 0z" transform="matrix(.41748 0 0 .41748 13.283 31.905)" fill="url(#a)"/>
				<path d="m176 148.5a19.5 19.5 0 1 1 -39 0 19.5 19.5 0 1 1 39 0z" transform="matrix(.25587 0 0 .25587 19.666 143.61)" fill="url(#a)"/>
				<path d="m176 148.5a19.5 19.5 0 1 1 -39 0 19.5 19.5 0 1 1 39 0z" transform="matrix(.25587 0 0 .25587 50.654 36.996)" fill="url(#a)"/>
			</g>
			<g transform="matrix(.62372 0 0 .62372 11.105 1.3774e-7)">
				<path stroke-linejoin="round" d="m193.53 2.0037c-1.8948 0.063359-4.321 1.1001-5.5 5.5-0.69147-3.3791-8.0938-2.5625-8.0938-2.5625 0 1e-7 2.4356 1.668 2.375 2.9688-0.00029 0.00621 0.0004 0.02506 0 0.03125-1.2696 0.1437-2.513 0.32943-3.75 0.59375-0.53611-1.1932 0.15069-3.5661-0.1875-5.2188-1.0482 1.5875-1.5051 3.8341-1.7188 5.6562-1.2061 0.32544-2.4073 0.70673-3.5625 1.1562-4.3269-7.2845-11.327-10.539-19.812-5.2812-4.6353 2.8721-6.8041 7.4704-7.4375 12.562-13.507 2.8068-28.827 5.1562-42.188 5.1562-32.729 0-51.288 21.703-51.594 57.125-0.30536 35.422 4.891 43.966 8.25 45.188 3.359 1.2215 1.2188-1.2188 1.2188-1.2188l2.4375 1.5v-1.5l2.125 0.28125 1.25-2.4375h2.7188c-0.000001 0 2.4616-1.2008 2.1562-5.7812-0.30536-4.5805 2.4429-5.5061 0-9.7812s-5.1983-41.53-0.3125-45.5c4.8858-3.9698 19.865-13.144 31.469-15.281 11.604-2.1376 19.847-5.1671 46.719-0.28125 0.0209 1.768 0.15375 3.8579 0.4375 6.4375 1.5385 13.987 6.3419 16.266 12.656 27.344 7.6785 13.718 18.677 16.044 32.031 8.5938 11.007-6.4364 16.264-6.0326 24.594-17.375 1.6953-2.3084 2.9396-4.1539 3.875-5.7812 2.0075-1.4844 4.0059-2.9519 5.9062-4.1875 9.2728-6.2223 20.233-19.286 14.031-30.844-5.0166-9.3493-13.421-9.5072-21.219-4.4688-0.7161-1.0111-1.4791-2.0048-2.3125-2.9375 0.58666-1.2273 1.423-3.2795 1.3438-5-1.1926 1.3967-1.5356 4.7294-3.4688 2.7812s2-2.3125 2-2.3125c0-0.000002-4.0973-3.1122-5.6875-1.25 1.5017-5.6044-3.0312-5.9688-3.0312-5.9688 0.00001-0.000001 1.9336 1.9357 1.25 3.4688-0.2284 0.51222-0.80952 0.86268-1.4375 0.9375-0.69212-0.41533-1.3755-0.83962-2.0938-1.2188-0.16147-0.45716-0.2016-1.0601 0-1.8125-1.1962-0.42621-2.1085-0.09795-2.7812 0.46875-0.52266-0.2325-1.0615-0.44243-1.5938-0.65625l0.96875-4.9062-2.6875 4.2188c-0.40521-0.14459-0.80935-0.27246-1.2188-0.40625-0.12602-1.717-0.89552-3.7137-3.5938-4.2188-0.4574 1.7071-1.3714 2.4791-2.3438 2.6875-0.69619-0.13319-1.3935-0.24195-2.0938-0.34375-0.94732-0.52017-1.619-1.4383-1.5312-2.3438 0.22636-2.3347 4.0625-3.3125 4.0625-3.3125 0.00001-1e-7 -0.37044-0.1709-0.96875-0.3125-0.44874-0.1062-1.0246-0.17737-1.6562-0.15625z" fill-rule="evenodd" stroke="#3465a4" stroke-linecap="round" stroke-width="4" fill="#3465a4"/>
				<path d="m191.81 14.208c-1.8221 0.06093-4.1552 1.0579-5.2888 5.2889-0.66493-3.2493-7.783-2.4641-7.783-2.4641s2.3421 1.604 2.2838 2.8548c-0.00028 0.006 0.00038 0.0241 0 0.03005-1.2208 0.13818-2.4166 0.31679-3.606 0.57096-0.51553-1.1474 0.1449-3.4292-0.1803-5.0184-1.0079 1.5266-1.4473 3.6869-1.6528 5.4391-1.1598 0.31295-2.3148 0.6796-3.4257 1.1119-4.1608-7.0049-10.892-10.134-19.052-5.0785-4.4574 2.7618-6.5429 7.1837-7.152 12.08-12.988 2.699-27.72 4.9583-40.568 4.9583-31.472 0-49.319 20.869-49.613 54.932-0.29364 34.063 3.847 39.71 7.0771 40.884 3.2301 1.1746 1.172-1.172 1.172-1.172l2.3439 1.4424v-1.4424l2.0434 0.27046 1.202-2.3439h2.6144c-0.000001 0 2.7952-3.7232 2.5016-8.1279-0.29364-4.4046 4.4896-4.8667 2.1405-8.9777s-5.5523-34.279-2.441-39.472c14.863-24.81 55.515-24.533 75.615-14.545 1.4494 0.72034 0.14785 3.7098 0.42071 6.1904 1.4795 13.45 6.0984 15.642 12.17 26.294 7.3837 13.192 17.96 15.428 30.802 8.2638 10.585-6.1893 15.639-5.801 23.65-16.708 1.6303-2.2198 2.8268-3.9944 3.7262-5.5593 1.9304-1.4274 3.8521-2.8386 5.6795-4.0267 8.9168-5.9835 19.456-18.546 13.493-29.66-4.8241-8.9904-12.906-9.1422-20.404-4.2972-0.68861-0.97226-1.4223-1.9279-2.2237-2.8247 0.56414-1.1802 1.3683-3.1536 1.2922-4.8081-1.1468 1.3431-1.4766 4.5479-3.3356 2.6745-1.8589-1.8734 1.9232-2.2237 1.9232-2.2237 0-0.000002-3.94-2.9927-5.4692-1.202 1.4441-5.3893-2.9149-5.7396-2.9149-5.7396 0.00001-0.000001 1.8593 1.8614 1.202 3.3356-0.21963 0.49256-0.77844 0.82956-1.3823 0.90151-0.66555-0.39938-1.3227-0.80738-2.0134-1.172-0.15527-0.4396-0.19386-1.0194 0-1.7429-1.1503-0.40984-2.0276-0.09418-2.6745 0.45075-0.50259-0.22357-1.0208-0.42544-1.5326-0.63106l0.93156-4.7179-2.5843 4.0568c-0.38965-0.13904-0.77828-0.262-1.172-0.39066-0.12119-1.651-0.86114-3.5712-3.4558-4.0568-0.43984 1.6416-1.3188 2.3839-2.2538 2.5843-0.66947-0.12807-1.34-0.23266-2.0134-0.33055-0.91095-0.5002-1.5569-1.3831-1.4725-2.2538 0.21767-2.245 3.9065-3.1853 3.9065-3.1853 0.00001 0-0.35622-0.16433-0.93156-0.3005-0.43151-0.10213-0.98529-0.17056-1.5927-0.15025z" fill-rule="evenodd" fill="url(#r)"/>
				<path d="m181.53 8.2206s-44.927 14.352-77.868 14.352c-32.729 0-51.301 21.681-51.607 57.103-0.30536 35.422 4.8858 43.973 8.2449 45.194 3.359 1.2215 1.2215-1.2215 1.2215-1.2215l2.4429 1.5268v-1.5268l2.1376 0.30536 1.2215-2.4429h2.7483s2.4429-1.2215 2.1376-5.8019c-0.30536-4.5805 2.4429-5.4966 0-9.7717s-5.1912-41.53-0.30536-45.499c4.8858-3.9698 19.849-13.131 31.453-15.268 11.604-2.1376 19.849-5.1912 46.721-0.30536s34.812-32.979 31.453-36.644z" fill-rule="evenodd" fill="url(#q)"/>
				<path d="m65.206 61.608c6.012 85.856-13.431 57.574-12.196 16.444 0.02031 13.431-0.22769 27.176 3.6452 40.083 0.87175 2.1545 1.7504 4.8508 4.0327 5.8984-3.1575-4.2738 2.5382 0.55764 2.8221-1.3811 3.0511 1.6346 2.4047-3.5418 5.6595-2.0632 2.0922-0.22142 2.1755-3.2029 2.124-4.8507-0.45158-3.3013 2.3935-6.6177-0.0287-9.6584-2.4288-7.9626-2.4739-16.515-2.9247-24.813 0.09619-6.8263-0.6148-14.12 2.121-20.523 3.4399-3.6746 8.2385-5.9163 12.488-8.4991 8.1186-4.6413 16.989-7.8278 26.282-9.1712 14.121-3.229 28.76-1.3741 42.803 1.152-47.86-13.4-74.584 7.256-86.824 17.382z" fill-rule="evenodd" fill="url(#aa)"/>
				<path d="m153.28 4.8555c-11.15 6.9084-8.2012 23.7-3.282 33.725 5.1551 10.131 9.6204 26.414 16.336 21.086 21.888-21.888 9.6766-68.895-13.054-54.811z" fill-rule="evenodd" fill="url(#p)"/>
				<path d="m243.62 29.061c6.2 11.558-4.75 24.626-14.02 30.848-9.53 6.196-21.54 18.065-24.69 10.093-8.01-29.9 26.06-64.503 38.71-40.941z" fill-rule="evenodd" fill="url(#o)"/>
				<path d="m195.19 2.165c-1.795-0.42481-5.5778-0.54007-7.1497 5.3265-0.69147-3.3791-8.094-2.5628-8.094-2.5628s2.4327 1.6802 2.3721 2.9809c-0.00029 0.00621-0.004 0.011316-0.005 0.017505-1.2696 0.1437-2.5274 0.34056-3.7644 0.60488-0.53611-1.1932 0.16233-3.5729-0.17586-5.2255-1.0482 1.5875-1.5127 3.8505-1.7264 5.6727-9.3178 2.5142-17.3 8.6766-21.127 19.33-3.9451 9.1214-6.524 9.0308-4.9855 23.018s6.3262 16.25 12.641 27.328c7.6785 13.718 18.681 16.034 32.035 8.5837 11.007-6.4364 16.281-6.0037 24.611-17.346 8.3302-11.342 6.0601-12.551 7.2087-22.422 2.2151-10.234-0.91481-19.063-6.9338-25.799 0.58666-1.2273 1.4254-3.3035 1.3462-5.0241-1.1926 1.3967-1.5338 4.7341-3.467 2.7859s1.9909-2.3184 1.9909-2.3184c0-0.000001-4.0819-3.1006-5.6721-1.2384 1.5017-5.6044-3.0339-5.9726-3.0339-5.9726 0-0.000001 1.9262 1.952 1.2426 3.485-0.2284 0.51222-0.79851 0.83755-1.4265 0.91237-0.69213-0.41533-1.398-0.82582-2.1162-1.205-0.16147-0.45716-0.18894-1.0454 0.0127-1.7978-1.1962-0.42621-2.1132-0.11241-2.786 0.45429-0.52266-0.2325-1.0523-0.45466-1.5845-0.66848l0.95262-4.8856-2.6866 4.2146c-0.4052-0.14459-0.81472-0.26927-1.2241-0.40305-0.12601-1.717-0.87947-3.7182-3.5777-4.2233-0.45741 1.7071-1.3634 2.4867-2.3357 2.6951-0.69619-0.13319-1.3995-0.25443-2.0997-0.35624-0.94732-0.52017-1.6353-1.4417-1.5475-2.3472 0.22636-2.3347 4.0735-3.2989 4.0735-3.2989s-0.36792-0.17358-0.96623-0.31519z" fill-rule="evenodd" fill="#fff"/>
				<path d="m223.41 59.27 10.614-7.666-2.9634 0.29552 5.5724-4.3601-5.1306 1.2458 8.2262-5.1586-7.2978 2.1961 8.0934-6.013-6.2806 1.2938 6.8993-4.7593-6.8113 2.3478 5.1299-5.7175-6.1478 2.1482 2.2993-4.5676-3.494 1.3496 1.6359-4.3679-2.8306 1.1499 1.0612-2.1081-8.8456 4.1525s2.4888 4.8409 3.1865 11.562c0.69769 6.7215-2.9166 16.977-2.9166 16.977z" fill-rule="evenodd" fill="#fff"/>
				<path d="m155.68 41.12-5.3592-11.946 2.4186 1.7376-2.6458-6.5621 3.8203 3.6442-4.5448-8.5806 5.222 5.5508-4.0026-9.2541 4.7923 4.2607-3.5953-7.5714 4.7248 5.4389-1.5839-7.5165 4.2501 4.9343 0.29252-5.1053 2.3511 2.9158 0.76726-4.6007 1.8764 2.4112 0.135-2.3563 5.5843 8.019s-4.5758 2.948-8.5408 8.4201-5.9624 16.16-5.9624 16.16z" fill-rule="evenodd" fill="#fff"/>
				<path d="m163.7 32.284s16.959 1.8664 12.489 18.55c-15.821-4.2393 3.6272-14.231-12.489-18.55z" fill-rule="evenodd" fill="#729fcf"/>
				<g transform="matrix(.53568 .14353 -.14353 .53568 93.244 -76.186)">
					<path d="m193.5 170.56a8.3117 8.3117 0 1 1 -16.623 0 8.3117 8.3117 0 1 1 16.623 0z" transform="matrix(1.396 0 0 1.396 -71.556 -66.826)"/>
					<path d="m193.5 170.56a8.3117 8.3117 0 1 1 -16.623 0 8.3117 8.3117 0 1 1 16.623 0z" transform="matrix(.55042 0 0 .25629 85.038 134.22)" fill="url(#f)"/>
					<path d="m193.5 170.56a8.3117 8.3117 0 1 1 -16.623 0 8.3117 8.3117 0 1 1 16.623 0z" transform="matrix(.86905 0 0 .48914 26.032 83.33)" fill="url(#e)"/>
				</g>
				<path d="m216.87 46.53s-15.62-6.8634-20.091 9.82c15.821 4.2393 3.9744-14.138 20.091-9.82z" fill-rule="evenodd" fill="#729fcf"/>
				<g transform="matrix(-.53568 -.14353 -.14353 .53568 332.12 -12.178)">
					<path d="m193.5 170.56a8.3117 8.3117 0 1 1 -16.623 0 8.3117 8.3117 0 1 1 16.623 0z" transform="matrix(1.396 0 0 1.396 -71.556 -66.826)"/>
					<path d="m193.5 170.56a8.3117 8.3117 0 1 1 -16.623 0 8.3117 8.3117 0 1 1 16.623 0z" transform="matrix(.55042 0 0 .25629 85.038 134.22)" fill="url(#f)"/>
					<path d="m193.5 170.56a8.3117 8.3117 0 1 1 -16.623 0 8.3117 8.3117 0 1 1 16.623 0z" transform="matrix(.86905 0 0 .48914 26.032 83.33)" fill="url(#e)"/>
				</g>
				<path d="m152.85 39.282c-0.78099-0.11497-1.6698 0.38627-2.1536 1.3753-0.38645 2.4549-0.37301 5.6358 0.17816 10.646 1.5248 13.861 6.2696 16.104 12.527 27.083 1.1815 2.1109 2.4433 3.9591 3.7801 5.5312-0.21789-1.0897 0.18712-2.6654-0.33582-3.6043-2.2385-0.10519-0.9321-1.6194 0.36948-2.2811 2.4268-2.0274-0.96698 0.28986-1.8709 0.1123 0.62191-2.9488 3.1896-5.0181 5.0922-7.2075 2.5908-2.12-0.68174-4.4486-2.9403-4.4323-1.1708-0.9037-5.4217 0.8607-4.2442-1.5091 0.90683-1.901 1.5542-3.5371 3.228-4.8993-1.0909-0.11083-5.2417 3.02-3.7554-0.0022 1.3767-2.5483-2.3214-0.48579-3.1609 0.13852-2.6913 1.5052-0.58569-1.5684 0.36949-2.281 1.8217-1.3983 0.16236-2.6673-1.4569-1.7106-3.2957 0.80962 0.84904-1.5583 1.8432-2.0907-0.79058-0.48969-2.6926 1.0239-3.9891 0.93929-0.0216-1.3076 2.2985-2.0751 3.1934-3.1049 2.5349-1.9078-1.1592-1.4492-2.3476-0.81499-2.5132 0.65157 0.13328-1.2148 1.0534-1.5028 2.301-1.4785-1.3404-0.72725-2.1596-0.33694-3.7356 1.2611-1.5774-2.7511-0.03-3.9128 1.5116-2.8115-1.558 1.2163-2.493-0.20313-1.5879-1.7614 1.6155-2.9148 0.7696-4.0519-0.15916-1.1799-0.77286-1.7784-1.4671-1.8806zm70.869 18.989c-0.5962-0.10236-1.2921 0.16649-1.9159 0.97416-1.3011 0.5618 0.89643 3.1623-1.3594 3.8938-1.5194 0.76183-2.1638-4.2612-2.2606-1.0706 0.75924 1.7798 0.62211 6.3335-1.9824 3.3736-0.51432-0.74763-3.2922-3.2189-2.0388-0.788 0.6529 0.7095 1.9943 3.6444 0.14359 1.8235-0.7121-1.1435-3.6646-3.383-2.4232-0.46336 0.26012 1.3393 1.8683 3.1594 1.1958 4.281-1.1652-0.57497-2.0382-2.8322-2.9677-2.8034 0.59476 0.95816 2.9829 5.0766 0.53356 2.7276-0.92395-1.6382-2.9781-1.3643-2.0996 0.7576 0.47088 1.0947 0.7576 4.8094-0.82055 2.1602-0.41487-0.96042-2.5863-4.5956-2.6682-1.7004-0.22391 3.3604-2.2706-1.431-3.2707-1.8805 0.76842 2.0166 0.511 3.7572 0.34586 5.8569-0.16511 2.6411-2.947-1.0077-4.4128-0.81052-1.9478-1.1434-5.9462-0.76303-4.7625 2.3684 0.55304 2.8473 1.7248 5.9186 0.78893 8.7833-0.8716-0.29819-2.6347-3.9972-1.5468-1.0281 0.79637 1.2238 1.1706 3.1883-0.82055 2.1602-0.80373 0.4807-1.241 1.7305-1.8299 2.5963 1.8153-0.65826 3.6868-1.5207 5.6027-2.5895 10.909-6.3788 16.135-5.9499 24.39-17.191 3.1653-4.31 4.7861-7.1437 5.6458-9.5508-0.0875-1.009-0.69817-1.7486-1.4671-1.8806zm-54.849 26.843c-0.25855 0.0073-0.46348-0.01817-0.65244-0.06326 0.34957 0.3654 0.69932 0.71472 1.0585 1.046-0.10051-0.38555-0.21912-0.73932-0.40607-0.98274zm18.337 4.9135c-0.17577 0.07272-0.35894 0.17468-0.53258 0.32215 0.25927-0.06396 0.51728-0.12728 0.77886-0.20038-0.0813-0.04041-0.1595-0.06836-0.24628-0.12177zm-14.69-1.554c-0.0438-0.01161-0.10031 0.0025-0.14809-0.0025 0.21467 0.13236 0.42528 0.2548 0.64281 0.37678-0.13204-0.17714-0.28818-0.31948-0.49472-0.37429z" fill-rule="evenodd" fill="url(#n)"/>
				<path d="m175.36 74.779c-3.6338 0.20797-4.4812 0.6986-3.8536 3.694 0.62765 2.9954 2.3578 7.2142 6.3642 8.2877s7.6186-1.7138 9.6613-3.9936c2.0428-2.2799 2.5848-2.3675-1.4903-5.1259-4.0751-2.7583-7.0478-3.0701-10.682-2.8621z" fill-rule="evenodd"/>
				<path d="m175.89 75.572c-3.1724 0.18156-3.9122 0.60989-3.3642 3.2249 0.54795 2.6151 8.2725-2.9028 5.556 7.2353 2.708-10.106 6.6512-1.4962 8.4345-3.4865 1.7834-1.9904 2.2566-2.0669-1.301-4.475s-6.1529-2.6803-9.3253-2.4987z" fill-rule="evenodd" fill="url(#m)"/>
				<path d="m190.46 35.685s4.2701 1.9426 2.9459 8.3746c5.4215-5.3341 2.7946-10.429 2.7946-10.429s6.0327 2.8141 4.1632 8.3015c4.9492-5.0614 2.3223-10.157 2.3223-10.157s5.8866 0.37964 6.4783 4.1312c-0.0926-5.6139-4.336-9.1463-4.336-9.1463s10.157 2.3223 8.387 7.4372c3.8852-8.5403-3.5643-10.536-3.5643-10.536s5.0686-1.0372 8.1678 3.7854c-1.1833-7.5031-6.245-8.8956-6.245-8.8956 5.269 2.2709 7.3232 6.2091 6.9098 13.864-0.319-3.2792-4.5881-5.6662-4.5881-5.6662s3.9814 2.6819-1.0213 10.923c0.4527-4.6694-4.3745-6.7341-4.3745-6.7341s3.6338 4.8934-0.63273 9.811c0.72537-4.1971-2.6269-5.0953-2.6269-5.0953s0.33857 7.6759-7.291 10.821c1.3705-3.625-0.36531-6.0862-0.36531-6.0862s0.59167 3.7515-6.8383 6.1521c2.5878-3.698-0.28509-10.855-0.28509-10.855z" fill-rule="evenodd" fill="url(#l)"/>
				<path d="m188.93 11.045c-1.5305-0.6776-6.2014-1.6477-9.6539-0.45878 4.5392-1.8794 9.8116 3.6609 9.8116 3.6609s-7.5008-1.6733-10.376 1.8671c8.1837-2.4699 10.735 4.4362 10.735 4.4362s-5.4921-3.2374-9.2075 0.24599c3.6448-1.5074 8.9957 3.1672 8.9957 3.1672s-3.3957 0.12201-5.5409 4.3627c2.7124-1.337 6.5636-0.64902 6.5636-0.64902-3.1412 0.40256-4.7004 0.92885-8.5078 3.2774 2.5147-4.9153 5.0412-6.2922 5.0412-6.2922s-6.6433-4.1176-9.7764-1.3642c5.1488-5.8064 9.3273-3.9783 9.3273-3.9783s-6.8589-3.7439-10.092-0.61797c3.2022-5.414 9.3581-4.9809 9.3581-4.9809s-2.6352-2.9282-8.2068-2.2958c7.0843-4.0901 13.058 0.29736 11.528-0.38024z" fill-rule="evenodd" fill="url(#k)"/>
			</g>
			<g fill-rule="evenodd" transform="matrix(.62372 0 0 .62372 -113.64 1.3774e-7)">
				<path stroke-linejoin="round" d="m420.01 169.15s1.8322 45.805-39.087 50.996c-40.919 5.1912-67.486-13.741-85.808-25.651-18.322-11.909-29.315-32.674-29.315-32.674l2.1376 1.2215-2.4429-3.359 2.1376 1.8322-2.4429-4.8858 1.8322 1.2215-2.1376-5.4966 3.0536 3.9698-2.1376-5.4966 2.4429 1.2215-0.9161-4.2751 2.4429 2.4429-0.30537-3.0536 2.4429 1.2215-0.61074-1.5268 2.7483 1.5268v-1.8322l2.4429 1.5268v-3.359l2.1376 3.0537v-2.4429l2.1376 3.0537 0.30537-1.8322 2.1376 2.1376v-1.2215l4.5805 3.9698 0.30536-2.1376s47.091 27.903 79.7 43.973c25.863 12.745 38.171 7.6341 52.218-24.124z" stroke="#3465a4" stroke-linecap="round" stroke-width="4" fill="#3465a4"/>
				<path d="m417.28 178.94s1.7619 44.046-37.586 49.038c-39.348 4.9919-64.895-13.214-82.514-24.666s-28.19-31.42-28.19-31.42l2.0555 1.1746-2.3491-3.2301 2.0555 1.7618-2.3491-4.6983 1.7618 1.1746-2.0555-5.2856 2.9364 3.8174-2.0555-5.2856 2.3491 1.1746-0.88093-4.111 2.3491 2.3491-0.29364-2.9364 2.3491 1.1746-0.58728-1.4682 2.6428 1.4682v-1.7618l2.3491 1.4682v-3.2301l2.0555 2.9364v-2.3492l2.0555 2.9364 0.29365-1.7618 2.0555 2.0555v-1.1746l4.4046 3.8174 0.29365-2.0555s45.283 26.832 76.641 42.285c24.87 12.256 36.705 7.3411 50.213-23.198z" fill="url(#j)"/>
				<path d="m420.01 169.15s1.8322 45.805-39.087 50.996c-40.919 5.1912-67.486-13.741-85.808-25.651-18.322-11.909-29.315-32.674-29.315-32.674l2.1376 1.2215-2.4429-3.359 2.1376 1.8322-2.4429-4.8858 1.8322 1.2215-2.1376-5.4966 3.0536 3.9698-2.1376-5.4966 2.4429 1.2215-0.9161-4.2751 2.4429 2.4429-0.30537-3.0536 2.4429 1.2215-0.61074-1.5268 2.7483 1.5268v-1.8322l2.4429 1.5268v-3.359l2.1376 3.0537v-2.4429l2.1376 3.0537 0.30537-1.8322 2.1376 2.1376v-1.2215l4.5805 3.9698 0.30536-2.1376s47.091 27.903 79.7 43.973c25.863 12.745 38.171 7.6341 52.218-24.124z" fill="url(#z)"/>
				<path d="m420.01 169.15s1.8322 45.805-39.087 50.996c-40.919 5.1912-67.486-13.741-85.808-25.651-18.322-11.909-29.315-32.674-29.315-32.674l2.1376 1.2215-2.4429-3.359 2.1376 1.8322-2.4429-4.8858 1.8322 1.2215-2.1376-5.4966 3.0536 3.9698-2.1376-5.4966 2.4429 1.2215-0.9161-4.2751 2.4429 2.4429-0.30537-3.0536 2.4429 1.2215-0.61074-1.5268 2.7483 1.5268v-1.8322l2.4429 1.5268v-3.359l2.1376 3.0537v-2.4429l2.1376 3.0537 0.30537-1.8322 2.1376 2.1376v-1.2215l4.5805 3.9698 0.30536-2.1376s47.091 27.903 79.7 43.973c25.863 12.745 38.171 7.6341 52.218-24.124z" fill="url(#i)"/>
				<path d="m277.26 167.54c0.52024 5.5709 20.582 19.549 20.582 19.549s-14.16-8.8807-17.518-21.67c2.1042 7.2279 19.352 17.648 19.352 17.648s-9.93-6.447-16.062-20.63c4.3943 6.1507 17.51 16.662 17.51 16.662s-14.042-13.598-14.098-21.559c5.8488 11.556 16.701 17.427 16.701 17.427s-7.5573-3.2691-13.707-18.202c7.1454 10.909 19.364 15.597 19.364 15.597s-12.207-8.0671-16.728-17.636c14.554 11.476 78.562 44.925 100.4 46.969-12.203 1.9979-46.643-8.3242-46.643-8.3242s26.749 11.463 43 9.3958c-16.101 2.4225-51.052-6.8976-51.052-6.8976s35.059 11.074 48.402 8.8777c-13.673 2.3808-58.285-6.3795-58.285-6.3795s43.341 9.4072 50.927 9.9922c-15.442 2.0535-57.901-8.5592-57.901-8.5592s44.521 12.333 51.867 10.418c-13.649 4.4533-59.302-9.5464-59.302-9.5464s41.908 15.394 47.006 12.982c-28.863 5.6097-72.835-18.607-83.811-46.113z" fill="url(#h)"/>
			</g>
		</g>
		<path d="m103.86 127.03c2.6161 0 4.7565-2.1404 4.7565-4.7564v-16.885s0.47565-4.3997 3.3295-4.3997c2.8539 0 2.6161 4.6376 7.9671 4.6376 2.735 0 7.3725-1.427 7.3725-9.7508s-4.6376-9.394-7.3725-9.394c-5.351 0-5.1132 4.3997-7.9671 4.3997s-3.3295-4.5186-3.3295-4.5186v-6.8969c0-2.6161-2.1404-4.7565-4.7565-4.7565h-12.486s-4.043-0.71347-4.043-3.5674 4.5187-3.0917 4.5187-8.4427c0-2.735-1.5459-7.0158-9.8697-7.0158s-9.5129 4.2808-9.5129 7.0158c0 5.351 4.043 5.5889 4.043 8.4427 0 2.8539-4.043 3.5674-4.043 3.5674h-11.415c-2.6161 0-4.7565 2.1404-4.7565 4.7565v9.2751s-0.47565 7.1347 5.2321 7.1347c3.6863 0 3.8052-4.8754 8.6806-4.8754 2.3782 0 4.7565 2.2593 4.7565 7.1347 0 4.9943-2.3782 7.4914-4.7565 7.4914-4.7565 0-4.9943-4.8754-8.6806-4.8754-5.7078 0-5.2321 6.8969-5.2321 6.8969v14.626c0 2.616 2.1404 4.7564 4.7565 4.7564h15.459s7.4914 0.47566 7.4914-5.2321c0-3.6863-4.7565-4.2808-4.7565-9.1562 0-2.3782 2.6161-5.351 7.6103-5.351 4.9943 0 7.8482 2.9728 7.8482 5.351 0 4.7565-4.6376 5.4699-4.6376 9.1562 0 5.8267 7.4914 5.2321 7.4914 5.2321h6.3023z" stroke="#fff" stroke-width=".99998" fill="url(#y)"/>
	</g>
</svg>
