<svg width="302.66425" height="63.49197" xmlns="http://www.w3.org/2000/svg" xmlns:xlink="http://www.w3.org/1999/xlink">
 <defs>
  <pattern patternTransform="matrix(1.2534787,-1.2534787,1.2534787,1.2534787,39.404452,317.94405)" id="pattern6495" xlink:href="#pattern5595"/>
  <pattern patternTransform="matrix(1.2534787,-1.2534787,1.2534787,1.2534787,39.404452,317.94405)" id="pattern5595" xlink:href="#Strips1_1"/>
  <pattern patternUnits="userSpaceOnUse" width="2" height="1" patternTransform="translate(0,0) scale(10,10)" id="Strips1_1">
   <rect fill="black" x="0" y="-0.5" width="1" height="2" id="rect4774"/>
  </pattern>
 </defs>
 <metadata id="metadata5705">image/svg+xml</metadata>
 <g>
  <title>background</title>
  <rect fill="none" id="canvas_background" height="402" width="582" y="-1" x="-1"/>
 </g>
 <g>
  <title>Layer 1</title>
  <g id="layer1">
   <g id="g5867" transform="matrix(0.783023, 0, 0, 0.783023, 5.84017, 44.7244)">
    <g font-size="44.920464px" font-style="normal" font-weight="normal" fill="#000000" stroke="#edffd8" stroke-width="4.200068" stroke-linecap="square" stroke-miterlimit="4" font-family="Trebuchet MS" id="g4024" transform="matrix(1.78147, 0, 0, 1.65233, -168.892, -371.289)">
     <path stroke="#edffd8" stroke-width="4.200068" stroke-linecap="square" stroke-miterlimit="4" id="path4030" d="m141.512253,230.074738l0,-30.171631l9.811707,0c3.718109,0 6.141754,0.15094 7.270996,0.45282c1.735107,0.452759 3.187927,1.440674 4.358459,2.963623c1.170502,1.509277 1.755768,3.464478 1.755798,5.86554c-0.000031,1.852295 -0.337402,3.409607 -1.012177,4.671875c-0.674774,1.262329 -1.535461,2.25708 -2.582031,2.984253c-1.032837,0.713501 -2.086304,1.186829 -3.1604,1.420105c-1.459717,0.288086 -3.573547,0.43219 -6.341461,0.43219l-2.469025,0l0,11.381226l-7.631866,0m7.631866,-25.619202l0,9.572205l1.828705,0c2.409851,0 4.021027,-0.157776 4.833527,-0.473389c0.812469,-0.315552 1.26535,-0.809448 1.719788,-1.481812c0.468201,-0.672302 0.702301,-1.913269 0.702332,-2.805115c-0.000031,-1.097595 -0.323639,-2.55481 -0.970856,-3.268311c-0.647217,-0.71344 -1.286041,-1.159363 -2.277496,-1.337769c-0.574097,-0.10791 -1.603943,-0.17334 -3.0896,-0.196411c-0.403168,-0.005981 -0.839874,-0.008972 -1.310181,-0.008972l-1.436218,0"/>
     <path stroke="#edffd8" stroke-width="4.200068" stroke-linecap="square" stroke-miterlimit="4" id="path4026" d="m99.092575,230.03653l0,-29.962585l7.928833,0l0,29.962585l-7.928833,0"/>
     <path stroke="#edffd8" stroke-width="4.200068" stroke-linecap="square" stroke-miterlimit="4" id="path4028" d="m135.115585,224.582184l0,5.454346l-21.604828,0c0.233978,-2.06189 0.935852,-4.01239 2.105652,-5.851379c1.1698,-1.852966 3.480164,-4.304993 6.931091,-7.356079c2.778259,-2.466003 4.481781,-4.137817 5.110596,-5.015564c0.848083,-1.212036 1.272125,-2.410156 1.272156,-3.594421c-0.000031,-1.30957 -0.372894,-2.312683 -1.118622,-3.009338c-0.731171,-0.710449 -1.747406,-1.065735 -3.048828,-1.065735c-1.286774,0 -2.310364,0.369202 -3.070709,1.107544c-0.760376,0.738403 -1.199066,1.309082 -1.31604,3.022705l-6.141479,-0.491577c0.36557,-3.232178 1.513428,-4.990112 3.443634,-6.397278c1.930145,-1.407104 4.342865,-2.110657 7.238159,-2.110718c3.173065,0.000061 5.666199,0.815063 7.479431,2.445068c1.813171,1.630066 2.719757,3.657166 2.719788,6.081299c-0.000031,1.379333 -0.263245,2.695862 -0.789612,3.949707c-0.51181,1.23999 -1.330688,2.542603 -2.456604,3.907959c-0.745758,0.905579 -2.091034,2.208252 -4.035828,3.907898c-1.944794,1.699707 -3.18042,2.828186 -3.706818,3.385498c-0.51178,0.557251 -0.928528,1.100586 -1.250214,1.630005l12.234833,0"/>
    </g>
    <g font-size="44.920464px" font-style="normal" font-weight="normal" fill="#000000" stroke="#000000" stroke-width="2" stroke-miterlimit="4" font-family="Trebuchet MS" id="g4032" transform="matrix(1.78147, 0, 0, 1.65233, -168.892, -371.289)">
     <path fill="#000000" stroke="#000000" stroke-width="2" stroke-linecap="square" stroke-miterlimit="4" id="path4034" d="m141.512253,230.074738l0,-30.171631l9.811707,0c3.718109,0 6.141754,0.15094 7.270996,0.45282c1.735107,0.452759 3.187927,1.440674 4.358459,2.963623c1.170502,1.509277 1.755768,3.464478 1.755798,5.86554c-0.000031,1.852295 -0.337402,3.409607 -1.012177,4.671875c-0.674774,1.262329 -1.535461,2.25708 -2.582031,2.984253c-1.032837,0.713501 -2.086304,1.186829 -3.1604,1.420105c-1.459717,0.288086 -3.573547,0.43219 -6.341461,0.43219l-2.469025,0l0,11.381226l-7.631866,0m7.631866,-25.45697l0,9.364075l1.828705,0c2.409851,0 4.021027,-0.157776 4.833527,-0.473389c0.812469,-0.315552 1.20517,-0.809448 1.659607,-1.481812c0.468201,-0.672302 0.702301,-1.867371 0.702301,-2.759216c0,-1.097595 -0.323608,-2.392578 -0.970825,-3.106079c-0.647247,-0.71344 -1.225861,-1.159363 -2.217316,-1.337769c-0.729889,-0.137146 -2.196472,-0.20575 -4.39978,-0.205811l-1.436218,0"/>
     <path fill="#000000" stroke="#000000" stroke-width="2" stroke-linecap="square" stroke-miterlimit="4" id="path4036" d="m99.092575,230.03653l0,-29.962585l7.928833,0l0,29.962585l-7.928833,0"/>
     <path fill="#000000" stroke="#000000" stroke-width="2" stroke-miterlimit="4" id="path4038" d="m135.115585,224.582184l0,5.454346l-21.604828,0c0.233978,-2.06189 0.935852,-4.01239 2.105652,-5.851379c1.1698,-1.852966 3.480164,-4.304993 6.931091,-7.356079c2.778259,-2.466003 4.481781,-4.137817 5.110596,-5.015564c0.848083,-1.212036 1.272125,-2.410156 1.272156,-3.594421c-0.000031,-1.30957 -0.372894,-2.312683 -1.118622,-3.009338c-0.731171,-0.710449 -1.747406,-1.065735 -3.048828,-1.065735c-1.286774,0 -2.310364,0.369202 -3.070709,1.107544c-0.760376,0.738403 -1.199066,1.309082 -1.31604,3.022705l-6.141479,-0.491577c0.36557,-3.232178 1.513428,-4.990112 3.443634,-6.397278c1.930145,-1.407104 4.342865,-2.110657 7.238159,-2.110718c3.173065,0.000061 5.666199,0.815063 7.479431,2.445068c1.813171,1.630066 2.719757,3.657166 2.719788,6.081299c-0.000031,1.379333 -0.263245,2.695862 -0.789612,3.949707c-0.51181,1.23999 -1.330688,2.542603 -2.456604,3.907959c-0.745758,0.905579 -2.091034,2.208252 -4.035828,3.907898c-1.944794,1.699707 -3.18042,2.828186 -3.706818,3.385498c-0.51178,0.557251 -0.928528,1.100586 -1.250214,1.630005l13.201141,0"/>
    </g>
    <path fill="#ff0000" id="path3798" d="m147.052032,-38.57209a4.521418,4.521418 0 1 1 -9.042816,0a4.521418,4.521418 0 1 1 9.042816,0z"/>
    <path fill="#ff0000" id="path3800" d="m147.052032,-23.608131a4.521418,4.521418 0 1 1 -9.042816,0a4.521418,4.521418 0 1 1 9.042816,0z"/>
    <path fill="#ff0000" id="path3802" d="m147.052032,-8.644234a4.521418,4.521418 0 1 1 -9.042816,0a4.521418,4.521418 0 1 1 9.042816,0z"/>
    <path fill="#ff0000" id="path3804" d="m147.052032,6.319725a4.521418,4.521418 0 1 1 -9.042816,0a4.521418,4.521418 0 1 1 9.042816,0z"/>
    <path fill="#ff0000" id="path3806" d="m161.753952,-38.57209a4.521418,4.521418 0 1 1 -9.042816,0a4.521418,4.521418 0 1 1 9.042816,0z"/>
    <path fill="#ff0000" id="path3808" d="m161.753952,-23.608131a4.521418,4.521418 0 1 1 -9.042816,0a4.521418,4.521418 0 1 1 9.042816,0z"/>
    <path fill="#ff0000" id="path3810" d="m161.753952,-8.644234a4.521418,4.521418 0 1 1 -9.042816,0a4.521418,4.521418 0 1 1 9.042816,0z"/>
    <path fill="#ff0000" id="path3812" d="m161.753952,6.319725a4.521418,4.521418 0 1 1 -9.042816,0a4.521418,4.521418 0 1 1 9.042816,0z"/>
    <path fill="#ff0000" id="path3814" d="m176.455826,-38.57209a4.521418,4.521418 0 1 1 -9.042816,0a4.521418,4.521418 0 1 1 9.042816,0z"/>
    <path fill="#ff0000" id="path3816" d="m176.455826,-23.608131a4.521418,4.521418 0 1 1 -9.042816,0a4.521418,4.521418 0 1 1 9.042816,0z"/>
    <path fill="#ff0000" id="path3818" d="m176.455826,-8.644234a4.521418,4.521418 0 1 1 -9.042816,0a4.521418,4.521418 0 1 1 9.042816,0z"/>
    <path fill="#ff0000" id="path3820" d="m176.455826,6.319725a4.521418,4.521418 0 1 1 -9.042816,0a4.521418,4.521418 0 1 1 9.042816,0z"/>
    <path fill="#ff0000" id="path3822" d="m191.15773,-38.57209a4.521418,4.521418 0 1 1 -9.042816,0a4.521418,4.521418 0 1 1 9.042816,0z"/>
    <path fill="#ebed02" id="path3824" d="m191.15773,-23.608131a4.521418,4.521418 0 1 1 -9.042816,0a4.521418,4.521418 0 1 1 9.042816,0z"/>
    <path fill="#ebed02" id="path3826" d="m191.15773,-8.644234a4.521418,4.521418 0 1 1 -9.042816,0a4.521418,4.521418 0 1 1 9.042816,0z"/>
    <path fill="#ff0000" id="path3828" d="m191.15773,6.319725a4.521418,4.521418 0 1 1 -9.042816,0a4.521418,4.521418 0 1 1 9.042816,0z"/>
    <path fill="#ebed02" id="path3865" d="m205.85965,-38.57209a4.521418,4.521418 0 1 1 -9.042816,0a4.521418,4.521418 0 1 1 9.042816,0z"/>
    <path fill="#ff0000" id="path3867" d="m205.85965,-23.608131a4.521418,4.521418 0 1 1 -9.042816,0a4.521418,4.521418 0 1 1 9.042816,0z"/>
    <path fill="#ebed02" id="path3869" d="m205.85965,-8.644234a4.521418,4.521418 0 1 1 -9.042816,0a4.521418,4.521418 0 1 1 9.042816,0z"/>
    <path fill="#ff0000" id="path3871" d="m205.85965,6.319725a4.521418,4.521418 0 1 1 -9.042816,0a4.521418,4.521418 0 1 1 9.042816,0z"/>
    <path fill="#ebed02" id="path3873" d="m220.561554,-38.57209a4.521418,4.521418 0 1 1 -9.042816,0a4.521418,4.521418 0 1 1 9.042816,0z"/>
    <path fill="#ff0000" id="path3875" d="m220.561554,-23.608131a4.521418,4.521418 0 1 1 -9.042816,0a4.521418,4.521418 0 1 1 9.042816,0z"/>
    <path fill="#ebed02" id="path3877" d="m220.561554,-8.644234a4.521418,4.521418 0 1 1 -9.042816,0a4.521418,4.521418 0 1 1 9.042816,0z"/>
    <path fill="#ff0000" id="path3879" d="m220.561554,6.319725a4.521418,4.521418 0 1 1 -9.042816,0a4.521418,4.521418 0 1 1 9.042816,0z"/>
    <path fill="#ebed02" id="path3881" d="m235.263443,-38.57209a4.521418,4.521418 0 1 1 -9.042816,0a4.521418,4.521418 0 1 1 9.042816,0z"/>
    <path fill="#ebed02" id="path3883" d="m235.263443,-23.608131a4.521418,4.521418 0 1 1 -9.042816,0a4.521418,4.521418 0 1 1 9.042816,0z"/>
    <path fill="#ebed02" id="path3885" d="m235.263443,-8.644234a4.521418,4.521418 0 1 1 -9.042816,0a4.521418,4.521418 0 1 1 9.042816,0z"/>
    <path fill="#ebed02" id="path3887" d="m235.263443,6.319725a4.521418,4.521418 0 1 1 -9.042816,0a4.521418,4.521418 0 1 1 9.042816,0z"/>
    <path fill="#ebed02" id="path3889" d="m249.965347,-38.57209a4.521418,4.521418 0 1 1 -9.042816,0a4.521418,4.521418 0 1 1 9.042816,0z"/>
    <path fill="#ebed02" id="path3891" d="m249.965347,-23.608131a4.521418,4.521418 0 1 1 -9.042816,0a4.521418,4.521418 0 1 1 9.042816,0z"/>
    <path fill="#ebed02" id="path3893" d="m249.965347,-8.644234a4.521418,4.521418 0 1 1 -9.042816,0a4.521418,4.521418 0 1 1 9.042816,0z"/>
    <path fill="#ebed02" id="path3895" d="m249.965347,6.319725a4.521418,4.521418 0 1 1 -9.042816,0a4.521418,4.521418 0 1 1 9.042816,0z"/>
    <path fill="#16ff0e" fill-opacity="0.858824" id="path3897" d="m264.667236,-38.57209a4.521418,4.521418 0 1 1 -9.042801,0a4.521418,4.521418 0 1 1 9.042801,0z"/>
    <path fill="#16ff0e" fill-opacity="0.858824" id="path3899" d="m264.667236,-23.608131a4.521418,4.521418 0 1 1 -9.042801,0a4.521418,4.521418 0 1 1 9.042801,0z"/>
    <path fill="#ebed02" id="path3901" d="m264.667236,-8.644234a4.521418,4.521418 0 1 1 -9.042801,0a4.521418,4.521418 0 1 1 9.042801,0z"/>
    <path fill="#ebed02" id="path3903" d="m264.667236,6.319725a4.521418,4.521418 0 1 1 -9.042801,0a4.521418,4.521418 0 1 1 9.042801,0z"/>
    <path fill="#ebed02" id="path3905" d="m279.369141,-38.57209a4.521418,4.521418 0 1 1 -9.042816,0a4.521418,4.521418 0 1 1 9.042816,0z"/>
    <path fill="#ebed02" id="path3907" d="m279.369141,-23.608131a4.521418,4.521418 0 1 1 -9.042816,0a4.521418,4.521418 0 1 1 9.042816,0z"/>
    <path fill="#16ff0e" fill-opacity="0.855005" id="path3909" d="m279.369141,-8.644234a4.521418,4.521418 0 1 1 -9.042816,0a4.521418,4.521418 0 1 1 9.042816,0z"/>
    <path fill="#ebed02" id="path3911" d="m279.369141,6.319725a4.521418,4.521418 0 1 1 -9.042816,0a4.521418,4.521418 0 1 1 9.042816,0z"/>
    <path fill="#16ff0e" fill-opacity="0.858824" id="path3913" d="m294.071045,-38.57209a4.521418,4.521418 0 1 1 -9.042816,0a4.521418,4.521418 0 1 1 9.042816,0z"/>
    <path fill="#16ff0e" id="path3915" d="m294.071045,-23.608131a4.521418,4.521418 0 1 1 -9.042816,0a4.521418,4.521418 0 1 1 9.042816,0z"/>
    <path fill="#ebed02" id="path3917" d="m294.071045,-8.644234a4.521418,4.521418 0 1 1 -9.042816,0a4.521418,4.521418 0 1 1 9.042816,0z"/>
    <path fill="#16ff0e" fill-opacity="0.858826" id="path3919" d="m294.071045,6.319725a4.521418,4.521418 0 1 1 -9.042816,0a4.521418,4.521418 0 1 1 9.042816,0z"/>
    <path fill="#16ff0e" fill-opacity="0.858824" id="path3921" d="m308.772949,-38.57209a4.521418,4.521418 0 1 1 -9.042816,0a4.521418,4.521418 0 1 1 9.042816,0z"/>
    <path fill="#ebed02" id="path3923" d="m308.772949,-23.608131a4.521418,4.521418 0 1 1 -9.042816,0a4.521418,4.521418 0 1 1 9.042816,0z"/>
    <path fill="#16ff0e" id="path3925" d="m308.772949,-8.644234a4.521418,4.521418 0 1 1 -9.042816,0a4.521418,4.521418 0 1 1 9.042816,0z"/>
    <path fill="#ebed02" id="path3927" d="m308.772949,6.319725a4.521418,4.521418 0 1 1 -9.042816,0a4.521418,4.521418 0 1 1 9.042816,0z"/>
    <path fill="#16ff0e" fill-opacity="0.858826" id="path3929" d="m323.474854,-38.57209a4.521418,4.521418 0 1 1 -9.042816,0a4.521418,4.521418 0 1 1 9.042816,0z"/>
    <path fill="#ebed02" id="path3931" d="m323.474854,-23.608131a4.521418,4.521418 0 1 1 -9.042816,0a4.521418,4.521418 0 1 1 9.042816,0z"/>
    <path fill="#16ff0e" id="path3933" d="m323.474854,-8.644234a4.521418,4.521418 0 1 1 -9.042816,0a4.521418,4.521418 0 1 1 9.042816,0z"/>
    <path fill="#16ff0e" id="path3935" d="m323.474854,6.319725a4.521418,4.521418 0 1 1 -9.042816,0a4.521418,4.521418 0 1 1 9.042816,0z"/>
    <path fill="#ebed02" id="path3937" d="m338.176758,-38.57209a4.521418,4.521418 0 1 1 -9.042816,0a4.521418,4.521418 0 1 1 9.042816,0z"/>
    <path fill="#16ff0e" id="path3939" d="m338.176758,-23.608131a4.521418,4.521418 0 1 1 -9.042816,0a4.521418,4.521418 0 1 1 9.042816,0z"/>
    <path fill="#16ff0e" id="path3941" d="m338.176758,-8.644234a4.521418,4.521418 0 1 1 -9.042816,0a4.521418,4.521418 0 1 1 9.042816,0z"/>
    <path fill="#16ff0e" id="path3943" d="m338.176758,6.319725a4.521418,4.521418 0 1 1 -9.042816,0a4.521418,4.521418 0 1 1 9.042816,0z"/>
    <path fill="#16ff0e" fill-opacity="0.858824" id="path3945" d="m352.878632,-38.57209a4.521418,4.521418 0 1 1 -9.042816,0a4.521418,4.521418 0 1 1 9.042816,0z"/>
    <path fill="#16ff0e" id="path3947" d="m352.878632,-23.608131a4.521418,4.521418 0 1 1 -9.042816,0a4.521418,4.521418 0 1 1 9.042816,0z"/>
    <path fill="#16ff0e" id="path3949" d="m352.878632,-8.644234a4.521418,4.521418 0 1 1 -9.042816,0a4.521418,4.521418 0 1 1 9.042816,0z"/>
    <path fill="#16ff0e" id="path3951" d="m352.878632,6.319725a4.521418,4.521418 0 1 1 -9.042816,0a4.521418,4.521418 0 1 1 9.042816,0z"/>
    <path fill="#16ff0e" id="path3953" d="m367.580536,-38.57209a4.521418,4.521418 0 1 1 -9.042816,0a4.521418,4.521418 0 1 1 9.042816,0z"/>
    <path fill="#16ff0e" id="path3955" d="m367.580536,-23.608131a4.521418,4.521418 0 1 1 -9.042816,0a4.521418,4.521418 0 1 1 9.042816,0z"/>
    <path fill="#16ff0e" id="path3957" d="m367.580536,-8.644234a4.521418,4.521418 0 1 1 -9.042816,0a4.521418,4.521418 0 1 1 9.042816,0z"/>
    <path fill="#16ff0e" id="path3959" d="m367.580536,6.319725a4.521418,4.521418 0 1 1 -9.042816,0a4.521418,4.521418 0 1 1 9.042816,0z"/>
   </g>
  </g>
  <text font-weight="bold" xml:space="preserve" text-anchor="start" font-family="Helvetica, Arial, sans-serif" font-size="47" id="svg_1" y="50.745983" x="44.832125" stroke-width="0" stroke="#000" fill="#8B4D4B">Unofficial</text>
 </g>
</svg>