<svg width="512" height="512" xmlns="http://www.w3.org/2000/svg">

 <g>
  <title>background</title>
  <rect fill="none" id="canvas_background" height="402" width="582" y="-1" x="-1"/>
 </g>
 <g>
  <title>Layer 1</title>
  <path id="svg_1" d="m0,0l0,512l512,0l0,-512l-512,0z" fill="#fff"/>
  <path id="svg_2" d="m153,239c-19.300003,10 -36,24.799988 -54.300003,36.5c-9.799995,8.299988 -25.299995,12.600006 -28.699997,26c10.300003,23 37.5,34 53.599998,53c23.200005,14.799988 12.400002,37.399994 10.799995,58.5c-0.599991,19.799988 8,38.200012 19.5,53.799988c0,14 -31.999992,35 -4,41c32,-0.199982 63,1.300018 95,0c19,-6.399994 41,2.600006 61,-2.299988c23,-1.200012 47,-0.299988 70,-2.600006c23,-16 -28,-31 -1.600006,-47c14,-18 10.700012,-42 5.5,-62c18,-15 18.300018,-37 20,-58c5,-20 14,-39 19,-59c-4,-24 -39,-42 -46,-57c18,-29 27,-64 20,-97.999992c-6.599976,-55 -51,-101.000002 -105,-113.000002c-59.999985,-15 -127.999985,17 -155.499985,72.500002c-16,31 -18,68.400002 -9.400002,101.999992c5.599998,20.400009 16.999992,38 29.599998,54.400009l0.5,1.199997z" fill="#010101"/>
  <path id="svg_3" d="m328,25l1,1l-1,-1z" fill="#576e57"/>
  <path id="svg_4" d="m267,26l1,1l-1,-1z" fill="#444b19"/>
  <path id="svg_5" d="m180,329l18,8c9.199997,-17.5 14.800003,-38.399994 21.600006,-57c2.299988,-6.299988 3.5,-17 9.5,-21.200012c5,-3.299988 15,-0.5 20,0c11,1 24,0.700012 34,-1.699982c53,-11 90,-57 92,-111c3,-73.000008 -69,-132.000006 -141,-117.000006c-44,9.999998 -76,43.999998 -88,85.999998c-10,38.000008 2,79.000008 28,107.000008c7,8 15,14 24,20c3.799988,3 10,5 11,10c1.399994,6 -4.300003,14 -6,19c-6,20 -16.400009,39 -21.200012,59l-1.899994,-1.100006z" fill="#ffff01"/>
  <path id="svg_6" d="m275,27l1,1l-1,-1m-39,1l1,1l-1,-1m-8,2l1,1l-1,-1z" fill="#444b19"/>
  <path id="svg_7" d="m291,31l1,1l-1,-1z" fill="#6c6c02"/>
  <path id="svg_8" d="m207,38l1,1l-1,-1zm105,2l1,1l-1,-1z" fill="#989801"/>
  <path id="svg_9" d="m313,40l1,1l-1,-1z" fill="#444b19"/>
  <path id="svg_10" d="m320,44l1,1l-1,-1z" fill="#6c6c02"/>
  <path id="svg_11" d="m321,45l1,1l-1,-1m-130,2l1,1l-1,-1z" fill="#444b19"/>
  <path id="svg_12" d="m192,47l1,1l-1,-1zm-2,1l1,1l-1,-1z" fill="#989801"/>
  <path id="svg_13" d="m326,48l1,1l-1,-1z" fill="#444b19"/>
  <path id="svg_14" d="m327,49l1,1l-1,-1" fill="#989801"/>
  <path id="svg_15" d="m359,50l1,1l-1,-1z" fill="#9fc79f"/>
  <path id="svg_16" d="m186,51l1,1l-1,-1m-1,1l1,1l-1,-1m-1,1l1,1l-1,-1z" fill="#989801"/>
  <path id="svg_17" d="m182,54l1,1l-1,-1m-1,1l1,1l-1,-1z" fill="#6c6c02"/>
  <path id="svg_18" d="m334,55l1,1l-1,-1z" fill="#9fc79f"/>
  <path id="svg_19" d="m180,56l1,1l-1,-1z" fill="#6c6c02"/>
  <path id="svg_20" d="m179,57l1,1l-1,-1m-1,1l1,1l-1,-1m-1,1l1,1l-1,-1z" fill="#989801"/>
  <path id="svg_21" d="m176,60l1,1l-1,-1m-1,1l1,1l-1,-1z" fill="#6c6c02"/>
  <path id="svg_22" d="m341,61l1,1l-1,-1z" fill="#989801"/>
  <path id="svg_23" d="m174,62l1,1l-1,-1z" fill="#6c6c02"/>
  <path id="svg_24" d="m342,62l1,1l-1,-1z" fill="#989801"/>
  <path id="svg_25" d="m173,63l1,1l-1,-1z" fill="#6c6c02"/>
  <path id="svg_26" d="m343,63l1,1l-1,-1m-171,1l1,1l-1,-1m172,0l1,1l-1,-1m-173,1l1,1l-1,-1m-1,1l1,1l-1,-1z" fill="#989801"/>
  <path id="svg_27" d="m299,75.5c-52.399994,11 -36.200012,92.800003 16,81.699997c52.700012,-11.199997 36.299988,-92.800011 -16,-81.699997z" fill="#010101"/>
  <path id="svg_28" d="m354,77l1,1l-1,-1z" fill="#444b19"/>
  <path id="svg_29" d="m161,78l1,1l-1,-1z" fill="#6c6c02"/>
  <path id="svg_30" d="m203,78.400002c-42,5.599998 -52.300003,62.700005 -12,79.999992c7.5,3 18,2.600006 26,1.400009c48.600006,-7.5 34.800003,-87.800003 -14,-81.400002z" fill="#010101"/>
  <path id="svg_31" d="m289,78l1,1l-1,-1m35,0l1,1l-1,-1z" fill="#989801"/>
  <path id="svg_32" d="m355,78l1,1l-1,-1z" fill="#444b19"/>
  <path id="svg_33" d="m221,80l1,1l-1,-1z" fill="#989801"/>
  <path id="svg_34" d="m328,80l1,1l-1,-1z" fill="#9fc79f"/>
  <path id="svg_35" d="m356,80l1,1l-1,-1zm-74,2l1,1l-1,-1z" fill="#6c6c02"/>
  <path id="svg_36" d="m185,83l1,1l-1,-1z" fill="#444b19"/>
  <path id="svg_37" d="m281,83l1,1l-1,-1z" fill="#989801"/>
  <path id="svg_38" d="m358,83l1,1l-1,-1m-174,1l1,1l-1,-1z" fill="#6c6c02"/>
  <path id="svg_39" d="m228,84l1,1l-1,-1z" fill="#444b19"/>
  <path id="svg_40" d="m280,84l1,1l-1,-1z" fill="#989801"/>
  <path id="svg_41" d="m359,84l1,1l-1,-1z" fill="#444b19"/>
  <path id="svg_42" d="m182,85l1,1l-1,-1m48,0l1,1l-1,-1z" fill="#6c6c02"/>
  <path id="svg_43" d="m334,85l1,1l-1,-1z" fill="#444b19"/>
  <path id="svg_44" d="m359,85l1,1l-1,-1m-203,1l1,1l-1,-1m25,0l1,1l-1,-1m50,0l1,1l-1,-1z" fill="#6c6c02"/>
  <path id="svg_45" d="m277,86l1,1l-1,-1z" fill="#989801"/>
  <path id="svg_46" d="m305,86l1,1l-1,-1zm30,0l1,1l-1,-1zm-103,1l1,1l-1,-1z" fill="#444b19"/>
  <path id="svg_47" d="m276,87l1,1l-1,-1z" fill="#989801"/>
  <path id="svg_48" d="m283,134c3,-6.300003 4.799988,-9.400002 10.200012,-11.699997c15.699982,-7 24.5,8.399994 22.799988,21.699997c38.799988,-11.199997 14,-72 -22,-54c-4.299988,2.300003 -8.200012,6 -11,10c-3,4.5 -5.200012,9.5 -5.700012,15c-0.599976,7 2.600006,13 5.700012,19z" fill="#fff"/>
  <path id="svg_49" d="m360,87l1,1l-1,-1m-205,1l1,1l-1,-1z" fill="#989801"/>
  <path id="svg_50" d="m178,88l1,1l-1,-1z" fill="#6c6c02"/>
  <path id="svg_51" d="m276,88l1,1l-1,-1z" fill="#444b19"/>
  <path id="svg_52" d="m297,88l1,1l-1,-1z" fill="#576e57"/>
  <path id="svg_53" d="m235,89l1,1l-1,-1z" fill="#444b19"/>
  <path id="svg_54" d="m275,89l1,1l-1,-1z" fill="#6c6c02"/>
  <path id="svg_55" d="m319,89l1,1l-1,-1z" fill="#779375"/>
  <path id="svg_56" d="m201,90l1,1l-1,-1z" fill="#9fc79f"/>
  <path id="svg_57" d="m196,147c-2,-8 -3,-15 3.399994,-21.800003c10.5,-11 28.700012,-3.599998 30.600006,10.800003c9.5,-9.400002 6,-29.199997 -3.199997,-37.699997c-12.5,-11.800003 -32,-10.400002 -43,2.699997c-3.600006,4.5 -5.199997,9.199997 -6,15c-0.800003,5.599998 0.199997,12 2.5,17c3.199997,6.800003 9,11.199997 15.699997,14z" fill="#FFF"/>
  <path id="svg_58" d="m274,90l1,1l-1,-1z" fill="#989801"/>
  <path id="svg_59" d="m320,90l1,1l-1,-1z" fill="#576e57"/>
  <path id="svg_60" d="m175,91l1,1l-1,-1z" fill="#989801"/>
  <path id="svg_61" d="m197,91l1,1l-1,-1z" fill="#444b19"/>
  <path id="svg_62" d="m215,91l1,1l-1,-1z" fill="#576e57"/>
  <path id="svg_63" d="m273,91l1,1l-1,-1z" fill="#989801"/>
  <path id="svg_64" d="m291,91l1,1l-1,-1zm-1,1l1,1l-1,-1z" fill="#9fc79f"/>
  <path id="svg_65" d="m324,92l1,1l-1,-1z" fill="#444b19"/>
  <path id="svg_66" d="m238,93l1,1l-1,-1m34,0l1,1l-1,-1z" fill="#6c6c02"/>
  <path id="svg_67" d="m288,93l1,1l-1,-1z" fill="#576e57"/>
  <path id="svg_68" d="m289,93l1,1l-1,-1z" fill="#95bb95"/>
  <path id="svg_69" d="m325,93l1,1l-1,-1z" fill="#444b19"/>
  <path id="svg_70" d="m173,94l1,1l-1,-1z" fill="#6c6c02"/>
  <path id="svg_71" d="m191,94l1,1l-1,-1z" fill="#9fc79f"/>
  <path id="svg_72" d="m221,94l1,1l-1,-1z" fill="#779375"/>
  <path id="svg_73" d="m222,94l1,1l-1,-1" fill="#444b19"/>
  <path id="svg_74" d="m271,94l1,1l-1,-1z" fill="#6c6c02"/>
  <path id="svg_75" d="m287,94l1,1l-1,-1z" fill="#95bb95"/>
  <path id="svg_76" d="m326,94l1,1l-1,-1z" fill="#779375"/>
  <path id="svg_77" d="m240,95l1,1l-1,-1z" fill="#444b19"/>
  <path id="svg_78" d="m286,95l1,1l-1,-1z" fill="#9fc79f"/>
  <path id="svg_79" d="m364,95l1,1l-1,-1z" fill="#989801"/>
  <path id="svg_80" d="m285,96l1,1l-1,-1zm-1,1l1,1l-1,-1z" fill="#9fc79f"/>
  <path id="svg_81" d="m126,99l1,1l-1,-1z" fill="#576e57"/>
  <path id="svg_82" d="m185,99l1,1l-1,-1z" fill="#9fc79f"/>
  <path id="svg_83" d="m366,99l1,1l-1,-1z" fill="#444b19"/>
  <path id="svg_84" d="m169,100l1,1l-1,-1z" fill="#6c6c02"/>
  <path id="svg_85" d="m184,100l1,1l-1,-1z" fill="#9fc79f"/>
  <path id="svg_86" d="m345,100l1,1l-1,-1m21,0l1,1l-1,-1z" fill="#989801"/>
  <path id="svg_87" d="m149,101l1,1l-1,-1z" fill="#6c6c02"/>
  <path id="svg_88" d="m182,102l1,1l-1,-1z" fill="#9fc79f"/>
  <path id="svg_89" d="m230,102l1,1l-1,-1z" fill="#444b19"/>
  <path id="svg_90" d="m244,102l1,1l-1,-1z" fill="#6c6c02"/>
  <path id="svg_91" d="m346,103l1,1l-1,-1zm-113,4l1,1l-1,-1z" fill="#444b19"/>
  <path id="svg_92" d="m166,108l1,1l-1,-1z" fill="#989801"/>
  <path id="svg_93" d="m246,108l1,1l-1,-1z" fill="#6c6c02"/>
  <path id="svg_94" d="m278,108l1,1l-1,-1" fill="#576e57"/>
  <path id="svg_95" d="m369,108l1,1l-1,-1m-223,1l1,1l-1,-1z" fill="#444b19"/>
  <path id="svg_96" d="m178,109l1,1l-1,-1z" fill="#576e57"/>
  <path id="svg_97" d="m234,110l1,1l-1,-1z" fill="#95bb95"/>
  <path id="svg_98" d="m372,117l1,1l-1,-1z" fill="#444b19"/>
  <path id="svg_99" d="m213,119l1,1l-1,-1z" fill="#576e57"/>
  <path id="svg_100" d="m206,120l1,1l-1,-1" fill="#779375"/>
  <path id="svg_101" d="m295,121l1,1l-1,-1z" fill="#9fc79f"/>
  <path id="svg_102" d="m304,121l1,1l-1,-1z" fill="#576e57"/>
  <path id="svg_103" d="m221,122l1,1l-1,-1z" fill="#444b19"/>
  <path id="svg_104" d="m143,123l1,1l-1,-1z" fill="#6c6c02"/>
  <path id="svg_105" d="m200,123l1,1l-1,-1z" fill="#9fc79f"/>
  <path id="svg_106" d="m223,123l1,1l-1,-1z" fill="#576e57"/>
  <path id="svg_107" d="m199,124l1,1l-1,-1z" fill="#9fc79f"/>
  <path id="svg_108" d="m224,124l1,1l-1,-1m54,0l1,1l-1,-1z" fill="#576e57"/>
  <path id="svg_109" d="m289,124l1,1l-1,-1z" fill="#9fc79f"/>
  <path id="svg_110" d="m310,124l1,1l-1,-1z" fill="#926a61"/>
  <path id="svg_111" d="m311,124l1,1l-1,-1z" fill="#95bb95"/>
  <path id="svg_112" d="m198,125l1,1l-1,-1z" fill="#9fc79f"/>
  <path id="svg_113" d="m225,125l1,1l-1,-1z" fill="#444b19"/>
  <path id="svg_114" d="m247,125l1,1l-1,-1z" fill="#989801"/>
  <path id="svg_115" d="m266,125l1,1l-1,-1z" fill="#6c6c02"/>
  <path id="svg_116" d="m312,125l1,1l-1,-1z" fill="#9fc79f"/>
  <path id="svg_117" d="m166,130l1,1l-1,-1z" fill="#444b19"/>
  <path id="svg_118" d="m195,130l1,1l-1,-1z" fill="#9fc79f"/>
  <path id="svg_119" d="m315,130l1,1l-1,-1z" fill="#95bb95"/>
  <path id="svg_120" d="m179,131l1,1l-1,-1z" fill="#926a61"/>
  <path id="svg_121" d="m229,131l1,1l-1,-1z" fill="#9fc79f"/>
  <path id="svg_122" d="m233,131l1,1l-1,-1z" fill="#779375"/>
  <path id="svg_123" d="m281,131l1,1l-1,-1z" fill="#576e57"/>
  <path id="svg_124" d="m284,131l1,1l-1,-1z" fill="#95bb95"/>
  <path id="svg_125" d="m282,132l1,1l-1,-1z" fill="#9fc79f"/>
  <path id="svg_126" d="m345,132l1,1l-1,-1m-178,1l1,1l-1,-1z" fill="#989801"/>
  <path id="svg_127" d="m180,133l1,1l-1,-1z" fill="#444b19"/>
  <path id="svg_128" d="m194,133l1,1l-1,-1z" fill="#576e57"/>
  <path id="svg_129" d="m232,133l1,1l-1,-1zm-1,2l1,1l-1,-1" fill="#444b19"/>
  <path id="svg_130" d="m169,138l1,1l-1,-1z" fill="#6c6c02"/>
  <path id="svg_131" d="m243,138l1,1l-1,-1m28,0l1,1l-1,-1z" fill="#444b19"/>
  <path id="svg_132" d="m342,138l1,1l-1,-1z" fill="#6c6c02"/>
  <path id="svg_133" d="m169,139l1,1l-1,-1z" fill="#9fc79f"/>
  <path id="svg_134" d="m243,139l1,1l-1,-1z" fill="#989801"/>
  <path id="svg_135" d="m272,139l1,1l-1,-1z" fill="#6c6c02"/>
  <path id="svg_136" d="m325,139l1,1l-1,-1z" fill="#444b19"/>
  <path id="svg_137" d="m342,139l1,1l-1,-1m-100,1l1,1l-1,-1z" fill="#9fc79f"/>
  <path id="svg_138" d="m273,141l1,1l-1,-1z" fill="#989801"/>
  <path id="svg_139" d="m274,142l1,1l-1,-1zm1,1l1,1l-1,-1z" fill="#6c6c02"/>
  <path id="svg_140" d="m190,144l1,1l-1,-1z" fill="#444b19"/>
  <path id="svg_141" d="m276,144l1,1l-1,-1z" fill="#6c6c02"/>
  <path id="svg_142" d="m192,145l1,1l-1,-1z" fill="#576e57"/>
  <path id="svg_143" d="m237,146l1,1l-1,-1z" fill="#444b19"/>
  <path id="svg_144" d="m175,147l1,1l-1,-1z" fill="#6c6c02"/>
  <path id="svg_145" d="m237,147l1,1l-1,-1m42,0l1,1l-1,-1z" fill="#989801"/>
  <path id="svg_146" d="m176,148l1,1l-1,-1z" fill="#6c6c02"/>
  <path id="svg_147" d="m236,148l1,1l-1,-1z" fill="#444b19"/>
  <path id="svg_148" d="m280,148l1,1l-1,-1z" fill="#989801"/>
  <path id="svg_149" d="m177,149l1,1l-1,-1z" fill="#444b19"/>
  <path id="svg_150" d="m281,149l1,1l-1,-1z" fill="#989801"/>
  <path id="svg_151" d="m178,150l1,1l-1,-1z" fill="#444b19"/>
  <path id="svg_152" d="m282,150l1,1l-1,-1z" fill="#6c6c02"/>
  <path id="svg_153" d="m328,152l1,1l-1,-1z" fill="#989801"/>
  <path id="svg_154" d="m182,153l1,1l-1,-1z" fill="#444b19"/>
  <path id="svg_155" d="m325,153l1,1l-1,-1z" fill="#6c6c02"/>
  <path id="svg_156" d="m326,153l1,1l-1,-1" fill="#989801"/>
  <path id="svg_157" d="m184,154l1,1l-1,-1z" fill="#444b19"/>
  <path id="svg_158" d="m229,154l1,1l-1,-1" fill="#989801"/>
  <path id="svg_159" d="m320,155l1,1l-1,-1z" fill="#6c6c02"/>
  <path id="svg_160" d="m223,157l1,1l-1,-1m-32,1l1,1l-1,-1z" fill="#989801"/>
  <path id="svg_161" d="m215,160l1,1l-1,-1z" fill="#9fc79f"/>
  <path id="svg_162" d="m143,162l1,1l-1,-1zm227,16l1,1l-1,-1z" fill="#6c6c02"/>
  <path id="svg_163" d="m367,183l1,1l-1,-1z" fill="#989801"/>
  <path id="svg_164" d="m149,184l1,1l-1,-1z" fill="#6c6c02"/>
  <path id="svg_165" d="m366,185l1,1l-1,-1z" fill="#989801"/>
  <path id="svg_166" d="m366,186l1,1l-1,-1z" fill="#444b19"/>
  <path id="svg_167" d="m390,187l1,1l-1,-1z" fill="#576e57"/>
  <path id="svg_168" d="m364,190l1,1l-1,-1m-212,1l1,1l-1,-1z" fill="#989801"/>
  <path id="svg_169" d="m364,191l1,1l-1,-1z" fill="#444b19"/>
  <path id="svg_170" d="m153,193l1,1l-1,-1m207,5l1,1l-1,-1z" fill="#989801"/>
  <path id="svg_171" d="m156,199l1,1l-1,-1z" fill="#6c6c02"/>
  <path id="svg_172" d="m157,200l1,1l-1,-1z" fill="#444b19"/>
  <path id="svg_173" d="m359,200l1,1l-1,-1z" fill="#6c6c02"/>
  <path id="svg_174" d="m359,201l1,1l-1,-1z" fill="#444b19"/>
  <path id="svg_175" d="m161,207l1,1l-1,-1z" fill="#989801"/>
  <path id="svg_176" d="m355,207l1,1l-1,-1z" fill="#444b19"/>
  <path id="svg_177" d="m162.300003,208.699997c-108.199993,202.199997 -54,101.000015 0,0z" fill="#989801"/>
  <path id="svg_178" d="m354,208l1,1l-1,-1z" fill="#444b19"/>
  <path id="svg_179" d="m163,210l1,1l-1,-1m3,4l1,1l-1,-1m1,1l1,1l-1,-1m182,0l1,1l-1,-1m-181,1l1,1l-1,-1zm2,3l1,1l-1,-1m1,1l1,1l-1,-1m1,1l1,1l-1,-1m172,0l1,1l-1,-1z" fill="#989801"/>
  <path id="svg_180" d="m173,222l1,1l-1,-1z" fill="#6c6c02"/>
  <path id="svg_181" d="m343,222l1,1l-1,-1m-1,1l1,1l-1,-1z" fill="#989801"/>
  <path id="svg_182" d="m175,224l1,1l-1,-1z" fill="#6c6c02"/>
  <path id="svg_183" d="m341,224l1,1l-1,-1z" fill="#989801"/>
  <path id="svg_184" d="m176,225l1,1l-1,-1z" fill="#6c6c02"/>
  <path id="svg_185" d="m177,226l1,1l-1,-1m1,1l1,1l-1,-1m1,1l1,1l-1,-1m158,0l1,1l-1,-1z" fill="#989801"/>
  <path id="svg_186" d="m180,229l1,1l-1,-1z" fill="#6c6c02"/>
  <path id="svg_187" d="m336,229l1,1l-1,-1z" fill="#989801"/>
  <path id="svg_188" d="m181,230l1,1l-1,-1z" fill="#6c6c02"/>
  <path id="svg_189" d="m334,230l1,1l-1,-1z" fill="#989801"/>
  <path id="svg_190" d="m335,230l1,1l-1,-1z" fill="#444b19"/>
  <path id="svg_191" d="m182,231l1,1l-1,-1z" fill="#6c6c02"/>
  <path id="svg_192" d="m184,232l1,1l-1,-1m1,1l1,1l-1,-1m1,1l1,1l-1,-1m1,1l1,1l-1,-1m3,2l1,1l-1,-1z" fill="#989801"/>
  <path id="svg_193" d="m326,237l1,1l-1,-1z" fill="#6c6c02"/>
  <path id="svg_194" d="m191,238l1,1l-1,-1z" fill="#444b19"/>
  <path id="svg_195" d="m192,238l1,1l-1,-1z" fill="#989801"/>
  <path id="svg_196" d="m320,241l1,1l-1,-1m-1,1l1,1l-1,-1z" fill="#6c6c02"/>
  <path id="svg_197" d="m334,248c-222.699997,176 -111.300003,88 0,0z" fill="#5a081a"/>
  <path id="svg_198" d="m237,270c-8.5,16 -15.399994,36.600006 -20,54c-1.399994,5 -6.300003,11.700012 -5,17c3.199997,12.799988 17.199997,22.5 29,25.600006c22.299988,5.799988 48.200012,7.5 70,-1c4,-1.600006 9.700012,-3 12,-6.800018c2,-3.599976 0.799988,-9 1.200012,-12.799988c1,-10.200012 6.5,-18.5 16.799988,-21c0,-9 1.700012,-18.700012 8.5,-25.5c4,-4 10.200012,-6 14,-1.200012c9.799988,12.300018 -3.600006,27.700012 12.5,36.700012c13.799988,-29.399994 26.299988,-75 -15,-88.699997c-5.200012,-1.800003 -11.399994,-4.699997 -17,-4c-10.299988,1 -22.700012,13.999985 -32.399994,18.599991c-22.300018,10 -50.600006,14 -74.600006,9l0,0.100006z" fill="#ff013d"/>
  <path id="svg_199" d="m199,243l1,1l-1,-1z" fill="#444b19"/>
  <path id="svg_200" d="m315,244l1,1l-1,-1z" fill="#989801"/>
  <path id="svg_201" d="m202,245l1,1l-1,-1z" fill="#444b19"/>
  <path id="svg_202" d="m313,245l1,1l-1,-1z" fill="#989801"/>
  <path id="svg_203" d="m314,245l1,1l-1,-1z" fill="#6c6c02"/>
  <path id="svg_204" d="m311,246l1,1l-1,-1z" fill="#989801"/>
  <path id="svg_205" d="m205,247l1,1l-1,-1z" fill="#444b19"/>
  <path id="svg_206" d="m365,247l1,1l-1,-1z" fill="#5a081a"/>
  <path id="svg_207" d="m206.699997,249.300003c-137.800011,174.999985 -69,87.599991 0,0z" fill="#6c6c02"/>
  <path id="svg_208" d="m401,250l1,1l-1,-1z" fill="#576e57"/>
  <path id="svg_209" d="m181,251c-120.700001,174 -60.300003,87 0,0zm147,0l1,1l-1,-1z" fill="#5a081a"/>
  <path id="svg_210" d="m181,253c-120.700001,172.700012 -60.300003,86.299988 0,0z" fill="#a30127"/>
  <path id="svg_211" d="m137,338c3.199997,-4.200012 6.600006,-7.200012 11,-10c-2,-4 -6.699997,-6.5 -7.5,-11c-1.600006,-9.399994 12.199997,-21 20.5,-21.799988c4.399994,-0.5 12.300003,5 15.5,3c2.5,-1.700012 3.399994,-6.600006 4.5,-9.200012c3,-7.5 13,-26 8,-33.699997c-2.5,-4 -7.699997,-3.800003 -13.399994,-2.199997c-7.600006,3 -16,8 -19.600006,10c-13.600006,8 -26.5,17 -39,27c-4,3 -12.300003,8 -13.5,13c-1.199997,6 3,11 6.199997,14c7.700005,9 17.200005,17 27.300003,22l0,-1.100006z" fill="#ff013d"/>
  <path id="svg_212" d="m185.699997,252.300003c-123.800007,172.999985 -62,86.599991 0,0zm-15.699997,2.699997l1,1l-1,-1z" fill="#a30127"/>
  <path id="svg_213" d="m289,255l1,1l-1,-1z" fill="#989801"/>
  <path id="svg_214" d="m320,256l1,1l-1,-1z" fill="#a30127"/>
  <path id="svg_215" d="m230,257l1,1l-1,-1z" fill="#444b19"/>
  <path id="svg_216" d="m281,257l1,1l-1,-1z" fill="#989801"/>
  <path id="svg_217" d="m318,257l1,1l-1,-1zm-154.699997,1.700012c-109.000004,169 -54.400002,84.399994 0,0z" fill="#5a081a"/>
  <path id="svg_218" d="m205,258l1,1l-1,-1m23,0l1,1l-1,-1z" fill="#6c6c02"/>
  <path id="svg_219" d="m161,259l1,1l-1,-1z" fill="#5a081a"/>
  <path id="svg_220" d="m227,259l1,1l-1,-1z" fill="#6c6c02"/>
  <path id="svg_221" d="m160.300003,260.700012c-107.000004,167.5 -53.400002,83.700012 0,0z" fill="#a30127"/>
  <path id="svg_222" d="m226,260l1,1l-1,-1z" fill="#444b19"/>
  <path id="svg_223" d="m154,263l1,1l-1,-1" fill="#a30127"/>
  <path id="svg_224" d="m223,267l1,1l-1,-1z" fill="#989801"/>
  <path id="svg_225" d="m386,267l1,1l-1,-1m-198,1l1,1l-1,-1z" fill="#5a081a"/>
  <path id="svg_226" d="m201,268l1,1l-1,-1z" fill="#989801"/>
  <path id="svg_227" d="m223.300003,268.700012c-149,162.200012 -74.400009,81 0,0z" fill="#444b19"/>
  <path id="svg_228" d="m222,270c-148,161.299988 -74,80.700012 0,0z" fill="#6c6c02"/>
  <path id="svg_229" d="m236,270l1,1l-1,-1z" fill="#5a081a"/>
  <path id="svg_230" d="m200,271c-133.300003,160.700012 -66.699997,80.299988 0,0z" fill="#989801"/>
  <path id="svg_231" d="m245,271l1,1l-1,-1" fill="#5a081a"/>
  <path id="svg_232" d="m139,273l1,1l-1,-1z" fill="#a30127"/>
  <path id="svg_233" d="m186.300003,273.700012c-124.199993,159 -62,79.399994 0,0z" fill="#5a081a"/>
  <path id="svg_234" d="m137,274l1,1l-1,-1z" fill="#a30127"/>
  <path id="svg_235" d="m199,274l1,1l-1,-1z" fill="#6c6c02"/>
  <path id="svg_236" d="m185,275l1,1l-1,-1z" fill="#a30127"/>
  <path id="svg_237" d="m198.5,276.600006c-132.300003,157 -66.199997,78.5 0,0z" fill="#444b19"/>
  <path id="svg_238" d="m234,275l1,1l-1,-1zm-100,1l1,1l-1,-1zm-1,1l1,1l-1,-1z" fill="#a30127"/>
  <path id="svg_239" d="m131,278l1,1l-1,-1m53.300003,0.700012s0,1 0.399994,0.599976c0,0 0,-1 -0.399994,-0.599976zm-54.300003,0.299988l1,1l-1,-1z" fill="#5a081a"/>
  <path id="svg_240" d="m183.300003,280.700012c-122.199993,154.200012 -61,77 0,0z" fill="#a30127"/>
  <path id="svg_241" d="m127,281l1,1l-1,-1z" fill="#5a081a"/>
  <path id="svg_242" d="m125.699997,282.299988c-0.5,0.5 0.600006,0.399994 0.600006,0.399994c0.5,-0.5 -0.600006,-0.399994 -0.600006,-0.399994z" fill="#a30127"/>
  <path id="svg_243" d="m218,282l1,1l-1,-1z" fill="#6c6c02"/>
  <path id="svg_244" d="m231,282l1,1l-1,-1m-107,1l1,1l-1,-1z" fill="#5a081a"/>
  <path id="svg_245" d="m83,286l1,1l-1,-1z" fill="#9fc79f"/>
  <path id="svg_246" d="m216.300003,287.700012c-144.199989,149.5 -72,74.700012 0,0z" fill="#444b19"/>
  <path id="svg_247" d="m180,289l1,1l-1,-1z" fill="#a30127"/>
  <path id="svg_248" d="m215,289c-143.300003,148.700012 -71.699997,74.299988 0,0z" fill="#989801"/>
  <path id="svg_249" d="m193,290l1,1l-1,-1m22.300003,0.700012s0,1 0.399994,0.599976c0,0 0,-1 -0.399994,-0.599976z" fill="#6c6c02"/>
  <path id="svg_250" d="m192.300003,293.700012c-128.199989,145.5 -64,72.700012 0,0z" fill="#989801"/>
  <path id="svg_251" d="m109,295l1,1l-1,-1m57,0c-110.700001,144.700012 -55.300003,72.299988 0,0z" fill="#a30127"/>
  <path id="svg_252" d="m178.300003,295.700012c-119.000004,144.200012 -59.400002,72 0,0z" fill="#5a081a"/>
  <path id="svg_253" d="m191.300003,295.700012c-127.500004,144.200012 -63.700005,72 0,0z" fill="#6c6c02"/>
  <path id="svg_254" d="m213,295l1,1l-1,-1z" fill="#989801"/>
  <path id="svg_255" d="m108,296l1,1l-1,-1m46.699997,0.299988c-102.999996,143.800018 -51.599998,72 0,0z" fill="#a30127"/>
  <path id="svg_256" d="m213,296l1,1l-1,-1z" fill="#6c6c02"/>
  <path id="svg_257" d="m107,297l1,1l-1,-1z" fill="#a30127"/>
  <path id="svg_258" d="m171.300003,297.700012c-114.199993,143 -57,71.399994 0,0z" fill="#5a081a"/>
  <path id="svg_259" d="m191,297l1,1l-1,-1z" fill="#989801"/>
  <path id="svg_260" d="m226,297l1,1l-1,-1m-119.699997,1.700012c-71.000004,142.199982 -35.400002,71 0,0z" fill="#a30127"/>
  <path id="svg_261" d="m177,298l1,1l-1,-1z" fill="#5a081a"/>
  <path id="svg_262" d="m190.300003,298.700012c-127.000004,142.200012 -63.400002,71 0,0z" fill="#444b19"/>
  <path id="svg_263" d="m173.699997,299.299988c-115.800007,141.799988 -58,71 0,0z" fill="#5a081a"/>
  <path id="svg_264" d="m176,299l1,1l-1,-1m-74,3c-68,140 -34,70 0,0z" fill="#a30127"/>
  <path id="svg_265" d="m147,302c1,1 1,1 0,0" fill="#5a081a"/>
  <path id="svg_266" d="m188,304l1,1l-1,-1z" fill="#6c6c02"/>
  <path id="svg_267" d="m210,304l1,1l-1,-1z" fill="#989801"/>
  <path id="svg_268" d="m209,306l1,1l-1,-1z" fill="#6c6c02"/>
  <path id="svg_269" d="m208,312c-138.699997,133.299988 -69.300003,66.700012 0,0z" fill="#444b19"/>
  <path id="svg_270" d="m106,312l1,1l-1,-1z" fill="#a30127"/>
  <path id="svg_271" d="m185,312l1,1l-1,-1z" fill="#444b19"/>
  <path id="svg_272" d="m207.300003,312.700012c-138.199989,133 -69,66.399994 0,0z" fill="#6c6c02"/>
  <path id="svg_273" d="m107,313l1,1l-1,-1z" fill="#a30127"/>
  <path id="svg_274" d="m140,313c-93.299999,132.700012 -46.699997,66.299988 0,0z" fill="#5a081a"/>
  <path id="svg_275" d="m185,313l1,1l-1,-1z" fill="#989801"/>
  <path id="svg_276" d="m108,314l1,1l-1,-1z" fill="#a30127"/>
  <path id="svg_277" d="m206.300003,314.700012c-137.5,131.5 -68.699997,65.700012 0,0z" fill="#989801"/>
  <path id="svg_278" d="m109,315l1,1l-1,-1m1.300003,1.700012c-73.500004,130.199982 -36.700005,65 0,0z" fill="#a30127"/>
  <path id="svg_279" d="m183.300003,317.700012c-122.199993,129.5 -61,64.700012 0,0z" fill="#444b19"/>
  <path id="svg_280" d="m111,318l1,1l-1,-1m1,1l1,1l-1,-1z" fill="#a30127"/>
  <path id="svg_281" d="m183,319l1,1l-1,-1z" fill="#989801"/>
  <path id="svg_282" d="m218,319l1,1l-1,-1z" fill="#5a081a"/>
  <path id="svg_283" d="m382,320l1,1l-1,-1m-267,1l1,1l-1,-1m1,1l1,1l-1,-1zm1,1l1,1l-1,-1m1,1l1,1l-1,-1m28,1l1,1l-1,-1m2.300003,1.700012c-99.000004,123.5 -49.400002,61.699982 0,0z" fill="#a30127"/>
  <path id="svg_284" d="m180,326l1,1l-1,-1z" fill="#444b19"/>
  <path id="svg_285" d="m335,326l1,1l-1,-1m-213,1l1,1l-1,-1m93.300003,0.700012c-143.5,123 -71.699997,61.399994 0,0zm-92.300003,0.299988l1,1l-1,-1z" fill="#a30127"/>
  <path id="svg_286" d="m147,328l1,1l-1,-1z" fill="#5a081a"/>
  <path id="svg_287" d="m201,328l1,1l-1,-1z" fill="#6c6c02"/>
  <path id="svg_288" d="m201.300003,329.700012c-134.199989,121.5 -67,60.700012 0,0z" fill="#444b19"/>
  <path id="svg_289" d="m214.300003,329.700012c-143,121.5 -71.400009,60.700012 0,0z" fill="#5a081a"/>
  <path id="svg_290" d="m184,330l1,1l-1,-1z" fill="#989801"/>
  <path id="svg_291" d="m373,333l1,1l-1,-1z" fill="#5a081a"/>
  <path id="svg_292" d="m191,334l1,1l-1,-1z" fill="#444b19"/>
  <path id="svg_293" d="m192,334l1,1l-1,-1z" fill="#989801"/>
  <path id="svg_294" d="m199,334l1,1l-1,-1z" fill="#6c6c02"/>
  <path id="svg_295" d="m327,334l1,1l-1,-1z" fill="#a30127"/>
  <path id="svg_296" d="m374,334l1,1l-1,-1z" fill="#5a081a"/>
  <path id="svg_297" d="m194.300003,335.700012c-129.5,117.5 -64.699997,58.700012 0,0z" fill="#6c6c02"/>
  <path id="svg_298" d="m375,335l1,1l-1,-1m-241.300003,1.299988c-88.999996,117 -44.599998,58.600006 0,0z" fill="#5a081a"/>
  <path id="svg_299" d="m195,336l1,1l-1,-1z" fill="#444b19"/>
  <path id="svg_300" d="m198.300003,336.700012c-132.199989,117 -66,58.399994 0,0z" fill="#989801"/>
  <path id="svg_301" d="m104,337l1,1l-1,-1z" fill="#9fc79f"/>
  <path id="svg_302" d="m197,337l1,1l-1,-1z" fill="#444b19"/>
  <path id="svg_303" d="m343,338l1,1l-1,-1z" fill="#926a61"/>
  <path id="svg_304" d="m344,338.700012c-8.5,3.5 -8.5,27.200012 -1.399994,32.299988c3.799988,2.800018 17.199982,-0.699982 21.399994,-2.299988c23.5,-9.5 -4.600006,-36 -20,-30z" fill="#fbb5a7"/>
  <path id="svg_305" d="m341,339l1,1l-1,-1m-1,1l1,1l-1,-1z" fill="#444b19"/>
  <path id="svg_306" d="m357,340l1,1l-1,-1z" fill="#926a61"/>
  <path id="svg_307" d="m211,341l1,1l-1,-1zm1,1l1,1l-1,-1z" fill="#a30127"/>
  <path id="svg_308" d="m339,342l1,1l-1,-1m22,0l1,1l-1,-1z" fill="#926a61"/>
  <path id="svg_309" d="m324,343l1,1l-1,-1z" fill="#5a081a"/>
  <path id="svg_310" d="m159,344c-106,112 -53,56 0,0z" fill="#b9867c"/>
  <path id="svg_311" d="m213,344l1,1l-1,-1z" fill="#a30127"/>
  <path id="svg_312" d="m364,344l1,1l-1,-1z" fill="#444b19"/>
  <path id="svg_313" d="m201,365c-6.800003,-9 -22,-17.399994 -33,-19.5c-4.5,-1 -12.199997,-1.700012 -14.199997,3.600006c-2.600006,7 4,13 9.199997,16c11.800003,6 26,4 38,1l0,-1.100006z" fill="#fbb5a7"/>
  <path id="svg_314" d="m168,345l1,1l-1,-1z" fill="#926a61"/>
  <path id="svg_315" d="m214.300003,345.700012c-143,111 -71.400009,55.399994 0,0z" fill="#5a081a"/>
  <path id="svg_316" d="m365,345l1,1l-1,-1z" fill="#444b19"/>
  <path id="svg_317" d="m215,347l1,1l-1,-1z" fill="#a30127"/>
  <path id="svg_318" d="m176,348l1,1l-1,-1z" fill="#b9867c"/>
  <path id="svg_319" d="m178.699997,349.299988c-118.999996,108.5 -59.599998,54.299988 0,0z" fill="#444b19"/>
  <path id="svg_320" d="m216,349l1,1l-1,-1z" fill="#5a081a"/>
  <path id="svg_321" d="m180.699997,350.299988c-120.499996,107.799988 -60.299995,54 0,0z" fill="#926a61"/>
  <path id="svg_322" d="m217,350l1,1l-1,-1z" fill="#5a081a"/>
  <path id="svg_323" d="m370,350l1,1l-1,-1z" fill="#444b19"/>
  <path id="svg_324" d="m182,351l1,1l-1,-1z" fill="#b9867c"/>
  <path id="svg_325" d="m183,351l1,1l-1,-1z" fill="#576e57"/>
  <path id="svg_326" d="m218,351l1,1l-1,-1z" fill="#5a081a"/>
  <path id="svg_327" d="m371,351l1,1l-1,-1z" fill="#576e57"/>
  <path id="svg_328" d="m185,352l1,1l-1,-1zm-32,2c-102,105.299988 -51,52.700012 0,0z" fill="#444b19"/>
  <path id="svg_329" d="m222,356l1,1l-1,-1" fill="#5a081a"/>
  <path id="svg_330" d="m192,357l1,1l-1,-1z" fill="#926a61"/>
  <path id="svg_331" d="m223,357l1,1l-1,-1z" fill="#5a081a"/>
  <path id="svg_332" d="m155,358l1,1l-1,-1z" fill="#b9867c"/>
  <path id="svg_333" d="m338,358l1,1l-1,-1z" fill="#444b19"/>
  <path id="svg_334" d="m194.699997,359.299988c-129.800011,101.799988 -65,51 0,0z" fill="#b9867c"/>
  <path id="svg_335" d="m320,361l1,1l-1,-1z" fill="#5a081a"/>
  <path id="svg_336" d="m199,362l1,1l-1,-1z" fill="#926a61"/>
  <path id="svg_337" d="m319,362l1,1l-1,-1z" fill="#a30127"/>
  <path id="svg_338" d="m200,363l1,1l-1,-1z" fill="#926a61"/>
  <path id="svg_339" d="m229,363l1,1l-1,-1z" fill="#5a081a"/>
  <path id="svg_340" d="m161,364l1,1l-1,-1z" fill="#444b19"/>
  <path id="svg_341" d="m162,364l1,1l-1,-1m39,0l-1,2l2,0c0,-2 0.300003,-1.399994 -1,-2z" fill="#926a61"/>
  <path id="svg_342" d="m163.699997,365.299988c-108.999996,97.799988 -54.599998,49 0,0z" fill="#444b19"/>
  <path id="svg_343" d="m199,365l1,1l-1,-1z" fill="#b9867c"/>
  <path id="svg_344" d="m311.700012,365.299988c-207.800003,97.799988 -104,49 0,0z" fill="#5a081a"/>
  <path id="svg_345" d="m196,366c-130.699997,97.299988 -65.300003,48.700012 0,0z" fill="#444b19"/>
  <path id="svg_346" d="m134,367l1,1l-1,-1z" fill="#576e57"/>
  <path id="svg_347" d="m191,367l1,1l-1,-1z" fill="#b9867c"/>
  <path id="svg_348" d="m244,367l1,1l-1,-1m61,0l1,1l-1,-1z" fill="#a30127"/>
  <path id="svg_349" d="m366,367l1,1l-1,-1z" fill="#444b19"/>
  <path id="svg_350" d="m364,368l1,1l-1,-1z" fill="#926a61"/>
  <path id="svg_351" d="m298,369l1,1l-1,-1z" fill="#5a081a"/>
  <path id="svg_352" d="m357,385c-17,3.200012 -27,3 -31,-16c-12,1.600006 -23.600006,7.799988 -36,9.600006c-4,0.600006 -11,-1 -14.299988,2c-5,4.799988 -5.400024,14 -5.700012,20.399994c-0.299988,4.700012 -2.399994,9.299988 -1.600006,14c1.700012,10.299988 13.300018,21.200012 19.700012,29c5,5.700012 11,14.299988 18,16.5c9,2.399994 17,-4.700012 23,-8.799988c10,-6 20,-13.5 25,-23.700012c3,-4.799988 1,-11.799988 1,-17c1,-8.700012 2,-17.299988 2,-26l-0.100006,0z" fill="#95bb95"/>
  <path id="svg_353" d="m358,370l1,1l-1,-1z" fill="#444b19"/>
  <path id="svg_354" d="m305,375l1,1l-1,-1z" fill="#576e57"/>
  <path id="svg_355" d="m157,384c0,14 -0.5,26 5.199997,39c4.800003,11 11,21 19,30c7,7.700012 14.800003,9 24.800003,9c17.199997,0 33.699997,-6.200012 42.5,-22c11,-20 3.600006,-55 -21.5,-61.299988c-8,-2 -23.699997,6.299988 -32,8c-13.699997,3 -24.800003,-0.400024 -38,-2.700012z" fill="#9fc79f"/>
  <path id="svg_356" d="m290,378l1,1l-1,-1zm-61,1l1,1l-1,-1z" fill="#779375"/>
  <path id="svg_357" d="m216,380c-144,88 -72,44 0,0z" fill="#576e57"/>
  <path id="svg_358" d="m274.700012,381.299988c-183,87 -91.600006,43.600006 0,0z" fill="#444b19"/>
  <path id="svg_359" d="m232.300003,381.700012c-155,87 -77.400009,43.399994 0,0z" fill="#779375"/>
  <path id="svg_360" d="m211,382c-140.699997,86.700012 -70.300003,43.299988 0,0z" fill="#95bb95"/>
  <path id="svg_361" d="m273,385c-182,84.700012 -91,42.299988 0,0z" fill="#444b19"/>
  <path id="svg_362" d="m208,383l1,1l-1,-1m27,0l1,1l-1,-1m1,1l1,1l-1,-1" fill="#779375"/>
  <path id="svg_363" d="m162,385l1,1l-1,-1z" fill="#576e57"/>
  <path id="svg_364" d="m238,385l1,1l-1,-1zm1,1l1,1l-1,-1m33,0l1,1l-1,-1" fill="#444b19"/>
  <path id="svg_365" d="m137,387l1,1l-1,-1z" fill="#9fc79f"/>
  <path id="svg_366" d="m191,387l1,1l-1,-1z" fill="#779375"/>
  <path id="svg_367" d="m240,387l1,1l-1,-1m1,1l1,1l-1,-1m1,1l1,1l-1,-1m-106,1l1,1l-1,-1m107,0l1,1l-1,-1z" fill="#576e57"/>
  <path id="svg_368" d="m136,391l1,1l-1,-1z" fill="#9fc79f"/>
  <path id="svg_369" d="m244,391l1,1l-1,-1m2,3l1,1l-1,-1z" fill="#576e57"/>
  <path id="svg_370" d="m155,395l1,1l-1,-1z" fill="#779375"/>
  <path id="svg_371" d="m251,403l1,1l-1,-1z" fill="#444b19"/>
  <path id="svg_372" d="m365,406c-1,6.799988 1.399994,18.200012 -1.5,24.200012c-7.200012,15.299988 -24.399994,25.399994 -38.5,33.699982c-6.600006,3 -13.200012,7 -21,5c-16.799988,-6 -21,-26 -35,-34c0,9 0.299988,16 3.700012,25c17.599976,42 71.5,11 89.5,-14c7.399994,-11 13.299988,-30 2.799988,-40m-208,3l1,1l-1,-1z" fill="#576e57"/>
  <path id="svg_373" d="m268,416l1,1l-1,-1zm-15,9l1,1l-1,-1z" fill="#779375"/>
  <path id="svg_374" d="m274,426l1,1l-1,-1z" fill="#444b19"/>
  <path id="svg_375" d="m275,427l1,1l-1,-1zm3,4l1,1l-1,-1z" fill="#779375"/>
  <path id="svg_376" d="m155,432c2.600006,11 11,20.799988 17.300003,30c2,3.299988 4.5,8.600006 8,10.399994c4.599991,2.399994 11.699997,2.200012 16.699997,2.800018c15.300003,1.799988 33.300003,2.599976 48,-2.5c5.600006,-2 11.799988,-4 14.700012,-9.700012c3,-5.700012 -0.600006,-14 -1.700012,-20c-5.600006,6 -9.399994,12.399994 -16,17.5c-14.199997,11 -43,17.799988 -59,6c-12.399994,-9 -17.399994,-24.200012 -28,-34.5m11,0l1,1l-1,-1m113,0l1,1l-1,-1z" fill="#576e57"/>
  <path id="svg_377" d="m362,432l1,1l-1,-1z" fill="#444b19"/>
  <path id="svg_378" d="m167,433l1,1l-1,-1zm182,0l1,1l-1,-1z" fill="#576e57"/>
  <path id="svg_379" d="m280,434l1,1l-1,-1m1,1l1,1l-1,-1z" fill="#444b19"/>
  <path id="svg_380" d="m282,436l1,1l-1,-1z" fill="#576e57"/>
  <path id="svg_381" d="m169,437l1,1l-1,-1zm188,0l1,1l-1,-1z" fill="#444b19"/>
  <path id="svg_382" d="m170,438l1,1l-1,-1" fill="#779375"/>
  <path id="svg_383" d="m356,438l1,1l-1,-1m-186,1l1,1l-1,-1z" fill="#444b19"/>
  <path id="svg_384" d="m284,439l1,1l-1,-1z" fill="#576e57"/>
  <path id="svg_385" d="m355,439l1,1l-1,-1m-197,1l1,1l-1,-1m13,0l1,1l-1,-1z" fill="#444b19"/>
  <path id="svg_386" d="m248,440l1,1l-1,-1z" fill="#576e57"/>
  <path id="svg_387" d="m285,440l1,1l-1,-1z" fill="#444b19"/>
  <path id="svg_388" d="m343,440l1,1l-1,-1z" fill="#779375"/>
  <path id="svg_389" d="m354,440l1,1l-1,-1m-11,1l1,1l-1,-1m-54,4l1,1l-1,-1m-30,7c-172.699997,40 -86.300003,20 0,0z" fill="#444b19"/>
  <path id="svg_390" d="m290,446l1,1l-1,-1zm-54,7l1,1l-1,-1m90,0l1,1l-1,-1z" fill="#576e57"/>
  <path id="svg_391" d="m341,453l1,1l-1,-1zm-44,1l1,1l-1,-1zm58,0l1,1l-1,-1z" fill="#444b19"/>
  <path id="svg_392" d="m233,455l1,1l-1,-1z" fill="#576e57"/>
  <path id="svg_393" d="m248,455l1,1l-1,-1m38,0l1,1l-1,-1m12,0l1,1l-1,-1z" fill="#444b19"/>
  <path id="svg_394" d="m320,456l1,1l-1,-1z" fill="#576e57"/>
  <path id="svg_395" d="m321,456l1,1l-1,-1z" fill="#444b19"/>
  <path id="svg_396" d="m229,457l1,1l-1,-1z" fill="#779375"/>
  <path id="svg_397" d="m288,457l1,1l-1,-1z" fill="#444b19"/>
  <path id="svg_398" d="m319,457l1,1l-1,-1z" fill="#779375"/>
  <path id="svg_399" d="m289,458l1,1l-1,-1z" fill="#444b19"/>
  <path id="svg_400" d="m375,459l1,1l-1,-1z" fill="#9fc79f"/>
  <path id="svg_401" d="m200,462c-133.300003,33.299988 -66.699997,16.700012 0,0z" fill="#576e57"/>
  <text font-weight="bold" xml:space="preserve" text-anchor="start" font-family="Helvetica, Arial, sans-serif" font-size="47" id="svg_402" y="266.5" x="8.5" stroke-width="0" stroke="#000" fill="#559E84">Unofficial i2p Browser</text>
 </g>
</svg>